<svg width="24" height="17" viewBox="0 0 24 17" fill="none" xmlns="http://www.w3.org/2000/svg">
<path d="M22.8121 2.96404C22.5578 1.56174 21.7041 0.660785 20.3636 0.413747C19.8114 0.312026 19.2483 0.239368 18.6888 0.213938L11.5465 0.00322925C10.9979 0.00322925 10.453 -0.00403656 9.90444 0.00322925C7.63388 0.0431912 5.36695 0.0649886 3.11091 0.348355C1.70498 0.526367 0.731364 1.36194 0.440732 2.75334C0.277251 3.52714 0.186429 4.32275 0.124669 5.11472C-0.0133809 6.80766 -0.046077 8.50785 0.0738088 10.2044C0.146467 11.2543 0.244555 12.3079 0.418934 13.3432C0.647807 14.702 1.58146 15.5993 2.89657 15.7955C3.67402 15.9117 4.46235 16.0098 5.24706 16.0352C7.65931 16.1152 10.0752 16.1878 12.4874 16.1987C14.8924 16.2096 17.301 16.1551 19.6951 15.9008C20.3127 15.8354 20.923 15.7373 21.4607 15.3922C22.3544 14.8182 22.7613 13.9572 22.8557 12.9473C22.9865 11.5777 23.1209 10.2081 23.1645 8.83482C23.2299 6.86941 23.1609 4.90765 22.8121 2.96404ZM9.29411 11.5704C9.29411 9.2417 9.29411 6.9566 9.29411 4.62791C11.3031 5.78318 13.2903 6.92754 15.3211 8.09734C13.3012 9.2635 11.3176 10.4079 9.29411 11.5704Z" fill="#193263"/>
</svg>
