<svg width="17" height="17" viewBox="0 0 17 17" fill="none" xmlns="http://www.w3.org/2000/svg">
<path d="M15.9787 4.05019C15.7687 1.98931 14.3764 0.464373 12.3321 0.166016C11.321 0.016837 10.2823 0.000261545 9.2546 0.000261545C7.49208 0.000261545 5.72404 -0.0107887 3.96705 0.110764C1.77357 0.270993 0.182329 1.88986 0 4.07781V12.15C0.171279 14.2054 1.60229 15.7469 3.63554 16.0342C4.65769 16.1779 5.70194 16.2 6.74067 16.2C8.49213 16.2 10.2547 16.2055 12.0006 16.0839C13.6195 15.9679 14.8571 15.1391 15.5698 13.6363C15.8792 12.9788 16.0229 12.2716 16.0339 11.5533L15.9787 4.05019ZM7.97277 12.2605C5.67432 12.2495 3.82339 10.3986 3.82339 8.10011C3.82339 5.79061 5.69089 3.92863 7.99487 3.93968C10.2933 3.95073 12.1387 5.80166 12.1442 8.10011C12.1498 10.4041 10.2768 12.2716 7.97277 12.2605ZM12.2769 4.74083C11.7464 4.72425 11.3376 4.28777 11.3486 3.7463C11.3597 3.20484 11.8072 2.78493 12.3542 2.80151C12.8791 2.81808 13.2935 3.26009 13.2824 3.79603C13.2714 4.33749 12.8238 4.7574 12.2769 4.74083Z" fill="#fff"/>
<path d="M7.97827 10.8018C6.49201 10.7963 5.28201 9.58632 5.28201 8.10005C5.28201 6.60274 6.50306 5.38721 8.0059 5.39826C9.49216 5.40931 10.6911 6.62484 10.6856 8.1111C10.6801 9.59737 9.47006 10.8074 7.97827 10.8018Z" fill="#fff"/>
</svg>
