<svg width="20" height="16" viewBox="0 0 20 16" fill="none" xmlns="http://www.w3.org/2000/svg">
<path d="M18.6656 1.8999C18.2706 2.0999 17.7768 2.20005 17.3818 2.30005C17.8756 1.80005 18.2706 1.2001 18.4681 0.600098C18.4681 0.500098 18.468 0.400049 18.3693 0.300049C18.2705 0.300049 18.2706 0.300049 18.1718 0.300049C17.5794 0.700049 16.8882 1.0001 16.1969 1.1001H16.0982C15.9994 1.1001 15.802 1.1 15.7032 1C14.9133 0.3 14.0245 0 13.0371 0C12.6421 0 12.1484 0.0999512 11.7534 0.199951C10.4697 0.599951 9.38351 1.7001 9.08727 3.1001C8.98853 3.6001 8.88974 4.1001 8.98849 4.6001V4.69995L8.88977 4.80005C6.02615 4.50005 3.36003 3.10005 1.48387 0.800049C1.38513 0.700049 1.28639 0.700049 1.18765 0.800049C1.18765 0.800049 1.18765 0.799902 1.18765 0.899902C0.200195 2.4999 0.496443 4.5999 1.87888 5.8999C1.58264 5.7999 1.28638 5.7 0.990146 5.5C0.8914 5.4 0.792667 5.5001 0.693922 5.6001V5.69995C0.693922 7.29995 1.58259 8.8 3.06377 9.5H2.96505C2.76756 9.5 2.47131 9.4999 2.27382 9.3999C2.17508 9.3999 2.07634 9.5001 1.9776 9.6001V9.69995C2.47132 11.2 3.65626 12.3 5.23618 12.5C3.95249 13.4 2.47132 13.8 0.990146 13.8H0.496419C0.397674 13.8 0.200195 13.9 0.200195 14C0.200195 14.1 0.200207 14.2999 0.397698 14.3999C2.07637 15.3999 4.05123 15.8999 6.02613 15.8999C7.7048 15.8999 9.38349 15.5999 10.8647 14.8999C12.2471 14.2999 13.432 13.4 14.4195 12.2C15.3082 11.1 16.0982 9.9 16.5919 8.5C17.0856 7.2 17.2831 5.9 17.2831 4.5V4.3999C17.2831 4.1999 17.3818 3.9999 17.5793 3.8999C18.1718 3.3999 18.7643 2.8001 19.1593 2.1001C19.258 2.0001 19.1593 1.90005 19.0605 1.80005C18.863 1.80005 18.7643 1.7999 18.6656 1.8999Z" fill="#fff"/>
</svg>
