<?xml version="1.0" encoding="UTF-8"?><svg id="Layer_2" xmlns="http://www.w3.org/2000/svg" viewBox="0 0 90 135.15"><defs><style>.cls-1{fill:#193263;}</style></defs><g id="Layer_1-2"><g><path class="cls-1" d="M39.06,59.75L0,32.42V12.56c2.41,0,4.8,0,7.21,.03l31.43,44.92h0c0,.79,.15,1.52,.41,2.21t0,.02Z"/><path class="cls-1" d="M39.53,54.25c-.39,.65-.66,1.37-.79,2.13L18.47,12.95c1.25,.08,2.49,.16,3.74,.27,4.69,.39,9.32,1.03,13.92,2.03l3.4,38.99Z"/><path class="cls-1" d="M41,62.44L0,58.86v-16.56l39.55,18.46c.38,.64,.88,1.21,1.45,1.68Z"/><path class="cls-1" d="M59.58,14.19l-17.6,37.71h0c-.67,.37-1.27,.85-1.77,1.43l3.15-36.13c.18,.05,.35,.11,.53,.17,.36,.12,.74,.19,1.12,.19s.76-.06,1.12-.19c4.43-1.45,8.92-2.47,13.46-3.18Z"/><path class="cls-1" d="M89.99,12.56v7.27l-44.74,31.31h0c-.08,0-.16,0-.25,0-.7,0-1.35,.12-1.97,.32L69.89,13.07c6.65-.47,13.37-.5,20.11-.5Z"/><path class="cls-1" d="M89.99,30.94v17.58l-41.55,3.62h0c-.62-.39-1.32-.7-2.06-.86l43.62-20.35Z"/><path class="cls-1" d="M49.32,52.82c1.25,1.16,2.04,2.83,2.04,4.68,0,2.48-1.41,4.62-3.48,5.66-.46-1.32-.8-2.59-.99-3.8,.48-.48,.78-1.14,.78-1.86,0-1.47-1.2-2.67-2.67-2.67s-2.66,1.2-2.66,2.67c0,.71,.28,1.36,.74,1.84-.15,1.01-.43,2.1-.8,3.2-.04,.16-.1,.32-.16,.49l-.2,.02L0,66.71v23.45c0,6.21,2.82,12.13,7.03,17.51,4.22,5.38,9.84,10.23,15.46,14.3,5.63,4.08,11.26,7.37,15.47,9.65,4.22,2.27,7.03,3.54,7.03,3.54,0,0,2.81-1.26,7.02-3.54,4.22-2.27,9.85-5.57,15.47-9.65,5.62-4.06,11.26-8.92,15.46-14.3,4.22-5.38,7.03-11.3,7.03-17.51V56.37l-40.68-3.55Zm-4.12,64.52s0,0-.02,0c0,0-.02,0-.02,0-6.86-1.39-6.37-3.81-6.37-3.81h12.79s.5,2.41-6.37,3.81Zm9.17-5.07h-18.88v-7.56h18.88v7.56Zm-2.32-8.46h-14.12s1.85-16.29-7.92-22.28c7.92-6.95,13.79-16.97,14-24.04v28.26c-.85,.39-1.44,1.24-1.44,2.24,0,1.35,1.08,2.46,2.44,2.46s2.44-1.11,2.44-2.46c0-1-.59-1.85-1.47-2.24v-28.26c.21,7.07,6.07,17.08,14.03,24.04-9.81,5.99-7.96,22.28-7.96,22.28Z"/><path class="cls-1" d="M41.92,63.05c.05,.04,.11,.07,.17,.09,0-.03,.02-.07,.03-.11l-.2,.02Z"/><path class="cls-1" d="M90,0V8.37c-5.7,0-11.4,.02-17.05,.32-3.78,.18-7.54,.5-11.27,1.01h0c-5.25,.72-10.44,1.81-15.55,3.48-.36,.12-.75,.18-1.12,.18s-.76-.07-1.12-.18c-.06-.02-.11-.04-.17-.05-2.62-.86-5.28-1.56-7.94-2.13-4.46-.97-8.99-1.58-13.55-1.97-1.91-.16-3.84-.28-5.76-.37-1.67-.09-3.35-.15-5.03-.18-3.8-.1-7.61-.1-11.43-.1V0C7.45,0,14.89,.04,22.22,.66c4.3,.36,8.57,.92,12.8,1.8,2.98,.61,5.93,1.38,8.86,2.34,.18,.06,.35,.1,.54,.13,.19,.03,.39,.04,.58,.04,.38,0,.76-.06,1.12-.18,7.08-2.33,14.32-3.52,21.66-4.15,7.33-.62,14.77-.66,22.21-.66Z"/></g></g></svg>