<?xml version="1.0" encoding="UTF-8"?><svg id="Layer_2" xmlns="http://www.w3.org/2000/svg" viewBox="0 0 307.34 135.15"><defs><style>.cls-1{fill:#193263;}.cls-2{fill:#af2c2c;}</style></defs><g id="Layer_1-2"><g><path class="cls-1" d="M110.95,94.61v-3.12c2.39-.06,4.03-.61,4.9-1.65,.88-1.04,1.37-2.46,1.46-4.25s.14-3.85,.14-6.18V39.78c0-1.7,.03-3.16,.09-4.39,.06-1.22,.13-2.25,.19-3.06-1.13,.06-2.26,.13-3.4,.19-1.13,.06-2.26,.13-3.39,.19v-4.15c3.46-.06,6.93-.11,10.43-.14s7.13-.05,10.9-.05c7.29,0,13,1.29,17.13,3.87,4.12,2.58,6.12,6.67,5.99,12.27,0,2.01-.58,4.03-1.75,6.04-1.17,2.01-2.9,3.79-5.19,5.33s-5.18,2.63-8.63,3.26v.19c6.92,0,12.14,1.59,15.66,4.76,3.52,3.18,5.29,7.19,5.29,12.03,0,3.84-.98,7.14-2.93,9.91-1.95,2.77-4.59,4.89-7.93,6.37-3.34,1.48-7.14,2.22-11.42,2.22h-27.55Zm14.44-3.77c1,.06,2.22,.11,3.63,.14,1.42,.03,2.74,.05,3.96,.05h2.41c4.85,0,8.76-1.21,11.75-3.63,2.99-2.42,4.48-5.99,4.48-10.71,0-3.84-.76-6.83-2.26-8.97-1.51-2.14-3.49-3.65-5.94-4.53-2.46-.88-5.13-1.32-8.02-1.32-1.89,0-3.6,.02-5.14,.05-1.54,.03-3.07,.11-4.58,.24v21.33c0,1.7-.02,3.15-.05,4.34-.03,1.2-.11,2.21-.24,3.02Zm.28-32.37l6.89-.19c3.59-.06,6.42-.8,8.49-2.22,2.08-1.42,3.57-3.19,4.49-5.33,.91-2.14,1.33-4.37,1.27-6.7-.06-3.4-.83-5.98-2.31-7.74s-3.29-2.96-5.43-3.59-4.25-.95-6.32-.95-3.62,.28-4.62,.85c-1.01,.57-1.67,1.51-1.98,2.83-.32,1.32-.47,3.15-.47,5.47v17.55Z"/><path class="cls-1" d="M216.6,94.98c-2.77-6.29-5.57-12.56-8.4-18.82-2.83-6.26-5.6-12.6-8.3-19.02-.88-2.01-1.75-4.04-2.6-6.09-.85-2.04-1.67-4.11-2.45-6.18-.79-2.08-1.59-4.15-2.41-6.23,0,.69-.02,1.39-.05,2.08-.04,.69-.05,1.39-.05,2.08-.07,2.26-.14,4.99-.24,8.17-.09,3.17-.2,6.57-.33,10.19s-.22,7.24-.28,10.85-.13,7.03-.19,10.24c-.06,1.39-.11,2.77-.14,4.15-.03,1.39-.11,2.68-.24,3.87,1.19-.06,2.37-.13,3.54-.19,1.16-.06,2.34-.13,3.54-.19v4.15h-18.03v-3.12c1.95-.06,3.38-.49,4.29-1.27,.91-.79,1.5-1.84,1.75-3.16,.25-1.32,.41-2.74,.47-4.25l1.79-43.03c.06-1.26,.11-2.52,.15-3.77,.03-1.26,.07-2.48,.14-3.68-1.13,.06-2.27,.11-3.4,.14-1.13,.03-2.26,.08-3.4,.14v-4.06h14.44l16.23,37.46c.82,1.89,1.62,3.77,2.41,5.66,.79,1.89,1.6,3.77,2.46,5.66,.85,1.89,1.68,3.81,2.5,5.76h.19c.69-1.7,1.51-3.73,2.45-6.09,.95-2.36,1.73-4.39,2.36-6.09,2.77-6.92,5.64-13.86,8.63-20.81,2.99-6.95,5.93-14.14,8.82-21.56h13.97v3.11c-1.57-.06-2.86,.24-3.87,.9-1.01,.66-1.73,1.75-2.17,3.25-.44,1.51-.6,3.56-.47,6.14l2.46,42.94c.13,1.07,.19,2.11,.19,3.12v2.74c1.13-.06,2.28-.11,3.45-.14,1.16-.03,2.31-.08,3.44-.14v4.15h-21.14v-3.12c1.95-.06,3.4-.53,4.34-1.41,.94-.88,1.52-2.14,1.75-3.77,.22-1.64,.27-3.65,.14-6.04l-1.89-31.14c-.06-1-.13-2.01-.19-3.02-.07-1.01-.13-2.01-.19-3.02-.06-1-.13-2.01-.19-3.02-.19,.44-.39,.91-.61,1.41-.22,.51-.42,1.04-.61,1.6l-21.23,52.47h-2.83Z"/><path class="cls-1" d="M307.34,31.57c-2.33,.06-3.95,.6-4.86,1.6-.91,1.01-1.42,2.36-1.51,4.06s-.14,3.68-.14,5.94v40.11c0,1.7-.02,3.16-.05,4.39-.03,1.23-.11,2.25-.24,3.07,1.13-.06,2.26-.13,3.4-.19s2.26-.13,3.4-.19v4.15h-21.23v-3.12c2.39-.13,4.03-.67,4.9-1.65,.88-.98,1.37-2.33,1.46-4.06,.09-1.73,.14-3.69,.14-5.9V39.02c0-1.26,.03-2.47,.09-3.63,.06-1.16,.13-2.22,.19-3.16-1.13,.06-2.26,.13-3.4,.19-1.13,.06-2.26,.13-3.39,.19v-4.15h21.23v3.11Z"/><g><path class="cls-1" d="M39.06,59.75L0,32.42V12.56c2.41,0,4.8,0,7.21,.03l31.43,44.92h0c0,.79,.15,1.52,.41,2.21t0,.02Z"/><path class="cls-1" d="M39.53,54.25c-.39,.65-.66,1.37-.79,2.13L18.47,12.95c1.25,.08,2.49,.16,3.74,.27,4.69,.39,9.32,1.03,13.92,2.03l3.4,38.99Z"/><path class="cls-1" d="M41,62.44L0,58.86v-16.56l39.55,18.46c.38,.64,.88,1.21,1.45,1.68Z"/><path class="cls-1" d="M59.58,14.19l-17.6,37.71h0c-.67,.37-1.27,.85-1.77,1.43l3.15-36.13c.18,.05,.35,.11,.53,.17,.36,.12,.74,.19,1.12,.19s.76-.06,1.12-.19c4.43-1.45,8.92-2.47,13.46-3.18Z"/><path class="cls-1" d="M89.99,12.56v7.27l-44.74,31.31h0c-.08,0-.16,0-.25,0-.7,0-1.35,.12-1.97,.32L69.89,13.07c6.65-.47,13.37-.5,20.11-.5Z"/><path class="cls-1" d="M89.99,30.94v17.58l-41.55,3.62h0c-.62-.39-1.32-.7-2.06-.86l43.62-20.35Z"/><path class="cls-1" d="M49.32,52.82c1.25,1.16,2.04,2.83,2.04,4.68,0,2.48-1.41,4.62-3.48,5.66-.46-1.32-.8-2.59-.99-3.8,.48-.48,.78-1.14,.78-1.86,0-1.47-1.2-2.67-2.67-2.67s-2.66,1.2-2.66,2.67c0,.71,.28,1.36,.74,1.84-.15,1.01-.43,2.1-.8,3.2-.04,.16-.1,.32-.16,.49l-.2,.02L0,66.71v23.45c0,6.21,2.82,12.13,7.03,17.51,4.22,5.38,9.84,10.23,15.46,14.3,5.63,4.08,11.26,7.37,15.47,9.65,4.22,2.27,7.03,3.54,7.03,3.54,0,0,2.81-1.26,7.02-3.54,4.22-2.27,9.85-5.57,15.47-9.65,5.62-4.06,11.26-8.92,15.46-14.3,4.22-5.38,7.03-11.3,7.03-17.51V56.37l-40.68-3.55Zm-4.12,64.52s0,0-.02,0c0,0-.02,0-.02,0-6.86-1.39-6.37-3.81-6.37-3.81h12.79s.5,2.41-6.37,3.81Zm9.17-5.07h-18.88v-7.56h18.88v7.56Zm-2.32-8.46h-14.12s1.85-16.29-7.92-22.28c7.92-6.95,13.79-16.97,14-24.04v28.26c-.85,.39-1.44,1.24-1.44,2.24,0,1.35,1.08,2.46,2.44,2.46s2.44-1.11,2.44-2.46c0-1-.59-1.85-1.47-2.24v-28.26c.21,7.07,6.07,17.08,14.03,24.04-9.81,5.99-7.96,22.28-7.96,22.28Z"/><path class="cls-1" d="M41.92,63.05c.05,.04,.11,.07,.17,.09,0-.03,.02-.07,.03-.11l-.2,.02Z"/><path class="cls-1" d="M90,0V8.37c-5.7,0-11.4,.02-17.05,.32-3.78,.18-7.54,.5-11.27,1.01h0c-5.25,.72-10.44,1.81-15.55,3.48-.36,.12-.75,.18-1.12,.18s-.76-.07-1.12-.18c-.06-.02-.11-.04-.17-.05-2.62-.86-5.28-1.56-7.94-2.13-4.46-.97-8.99-1.58-13.55-1.97-1.91-.16-3.84-.28-5.76-.37-1.67-.09-3.35-.15-5.03-.18-3.8-.1-7.61-.1-11.43-.1V0C7.45,0,14.89,.04,22.22,.66c4.3,.36,8.57,.92,12.8,1.8,2.98,.61,5.93,1.38,8.86,2.34,.18,.06,.35,.1,.54,.13,.19,.03,.39,.04,.58,.04,.38,0,.76-.06,1.12-.18,7.08-2.33,14.32-3.52,21.66-4.15,7.33-.62,14.77-.66,22.21-.66Z"/></g><rect class="cls-2" x="166.13" y="28.46" width="5.47" height="66.53"/><rect class="cls-2" x="269.6" y="28.6" width="5.47" height="66.53"/></g></g></svg>