<?xml version="1.0" encoding="UTF-8"?><svg id="Layer_2" xmlns="http://www.w3.org/2000/svg" viewBox="0 0 507.59 308.64"><defs><style>.cls-1{fill:#193263;}</style></defs><g id="Layer_1-2"><g><g><path class="cls-1" d="M0,258.15v-1.37c1.05-.03,1.77-.27,2.16-.73,.39-.46,.6-1.08,.64-1.87s.06-1.7,.06-2.72v-17.44c0-.75,.01-1.39,.04-1.93,.03-.54,.06-.99,.08-1.35-.5,.03-1,.06-1.5,.08-.5,.03-1,.06-1.49,.08v-1.83c1.52-.03,3.05-.05,4.59-.06s3.14-.02,4.8-.02c3.21,0,5.72,.57,7.54,1.7,1.81,1.13,2.69,2.93,2.64,5.4,0,.89-.26,1.77-.77,2.66-.51,.89-1.27,1.67-2.28,2.35s-2.28,1.16-3.8,1.43v.08c3.04,0,5.34,.7,6.89,2.1,1.55,1.4,2.33,3.16,2.33,5.29,0,1.69-.43,3.14-1.29,4.36-.86,1.22-2.02,2.15-3.49,2.8s-3.14,.98-5.02,.98H0Zm6.35-1.66c.44,.03,.98,.05,1.6,.06s1.21,.02,1.74,.02h1.06c2.13,0,3.86-.53,5.17-1.6,1.31-1.07,1.97-2.64,1.97-4.71,0-1.69-.33-3-1-3.95-.66-.94-1.54-1.61-2.62-1.99-1.08-.39-2.26-.58-3.53-.58-.83,0-1.59,0-2.26,.02-.68,.01-1.35,.05-2.02,.1v9.38c0,.75,0,1.38-.02,1.91-.01,.53-.05,.97-.1,1.33Zm.12-14.24l3.03-.08c1.58-.03,2.82-.35,3.74-.98s1.57-1.41,1.97-2.35c.4-.94,.59-1.92,.56-2.95-.03-1.5-.37-2.63-1.02-3.4s-1.45-1.3-2.39-1.58-1.87-.42-2.78-.42-1.59,.12-2.03,.37c-.44,.25-.73,.66-.87,1.24-.14,.58-.21,1.38-.21,2.41v7.72Z"/><path class="cls-1" d="M33.84,230.45c-.92,0-1.57,.2-1.97,.58-.4,.39-.64,.84-.73,1.35-.08,.51-.12,.96-.12,1.35v10.46c0,1.55,.1,3.05,.31,4.51,.21,1.45,.6,2.76,1.18,3.92,.58,1.16,1.45,2.09,2.6,2.78s2.65,1.04,4.5,1.04c1.99,0,3.62-.47,4.88-1.41,1.26-.94,2.19-2.24,2.78-3.9s.91-3.57,.94-5.73l.12-11.67c0-.55,.01-1.09,.04-1.6,.03-.51,.06-.98,.08-1.39-.5,.03-.99,.06-1.47,.08-.49,.03-.98,.06-1.47,.08v-1.83h7.72v1.37c-1.05,.03-1.78,.26-2.18,.71-.4,.44-.62,1.04-.66,1.79s-.06,1.62-.06,2.62l-.08,9.63c0,1.8-.19,3.52-.58,5.15-.39,1.63-1.02,3.09-1.89,4.36-.87,1.27-2.02,2.28-3.45,3.01-1.43,.73-3.18,1.1-5.25,1.1-2.22,0-4.08-.29-5.59-.87-1.51-.58-2.71-1.48-3.61-2.7-.9-1.22-1.54-2.76-1.93-4.61-.39-1.85-.58-4.07-.58-6.64v-8.43c0-.72,.02-1.57,.06-2.55,.04-.98,.08-1.74,.1-2.26-.5,.03-1,.05-1.5,.06-.5,.01-1,.03-1.49,.06v-1.79h9.3v1.37Z"/><path class="cls-1" d="M73.08,237.88c-.08-1.33-.4-2.59-.95-3.78-.55-1.19-1.36-2.16-2.41-2.91s-2.39-1.12-4.03-1.12c-1.72,0-3.03,.48-3.94,1.45-.91,.97-1.37,2.1-1.37,3.4,0,1.16,.33,2.14,1,2.93s1.53,1.48,2.6,2.08c1.07,.6,2.19,1.17,3.38,1.72,1.05,.47,2.1,.98,3.16,1.52,1.05,.54,2.01,1.16,2.86,1.85,.86,.69,1.54,1.52,2.06,2.47,.51,.96,.77,2.1,.77,3.43,0,1.52-.38,2.88-1.14,4.07-.76,1.19-1.86,2.13-3.3,2.8-1.44,.68-3.2,1.02-5.27,1.02-1.24,0-2.53-.18-3.86-.54-1.33-.36-2.51-.89-3.53-1.58l.21,1.79h-2.16l-.25-8.84h1.62c.14,2.44,.98,4.28,2.53,5.54,1.55,1.26,3.42,1.89,5.6,1.89,1.08,0,2.08-.2,2.99-.6,.91-.4,1.64-.99,2.18-1.76,.54-.78,.81-1.72,.81-2.82,0-1.25-.33-2.28-1-3.11-.66-.83-1.52-1.55-2.57-2.16-1.05-.61-2.17-1.19-3.36-1.74-1.05-.47-2.09-.97-3.11-1.49-1.03-.53-1.96-1.13-2.8-1.81-.84-.68-1.52-1.49-2.03-2.43-.51-.94-.77-2.08-.77-3.4,0-.72,.12-1.49,.37-2.32,.25-.83,.69-1.63,1.31-2.39s1.48-1.38,2.57-1.87c1.09-.49,2.48-.73,4.17-.73,1.05,0,2.23,.15,3.55,.44,1.31,.29,2.54,.85,3.67,1.68l-.17-1.79h2.12v9.14h-1.5Z"/><path class="cls-1" d="M89.65,230.45c-1.03,.03-1.74,.26-2.14,.71-.4,.44-.62,1.04-.66,1.79s-.06,1.62-.06,2.62v17.65c0,.75,0,1.39-.02,1.93-.01,.54-.05,.99-.1,1.35,.5-.03,1-.06,1.5-.08s1-.06,1.5-.08v1.83h-9.34v-1.37c1.05-.06,1.77-.3,2.16-.73,.39-.43,.6-1.02,.64-1.79,.04-.76,.06-1.62,.06-2.6v-17.94c0-.55,.01-1.09,.04-1.6,.03-.51,.06-.98,.08-1.39-.5,.03-1,.06-1.5,.08-.5,.03-1,.06-1.49,.08v-1.83h9.34v1.37Z"/><path class="cls-1" d="M116.93,258.81l-16.57-22.26c-.25-.33-.49-.66-.73-.98-.23-.32-.48-.64-.73-.98h-.04l.12,17.77v2.08c0,.69-.03,1.37-.08,2.03,.5-.03,1-.06,1.5-.08s1-.06,1.5-.08v1.83h-7.6v-1.37c.86,0,1.47-.19,1.85-.56,.37-.37,.62-.82,.73-1.33,.11-.51,.17-.98,.17-1.39l.04-19.97v-2.78c-.44,.03-.9,.06-1.37,.08-.47,.03-.94,.06-1.41,.08v-1.83h4.94l15.57,20.84c.36,.47,.71,.94,1.06,1.41,.35,.47,.7,.94,1.06,1.41h.04l.04-19.02c0-.55,.01-1.09,.04-1.6,.03-.51,.06-.98,.08-1.39-.5,.03-1,.06-1.5,.08s-1,.06-1.5,.08v-1.83h7.64v1.37c-1.02,.03-1.73,.26-2.12,.71-.39,.44-.6,1.04-.62,1.79s-.04,1.62-.04,2.62l-.08,23.25h-1.99Z"/><path class="cls-1" d="M140.31,247.39c0-1.22-.17-2.09-.5-2.62-.33-.52-.86-.84-1.58-.95s-1.67-.14-2.86-.08l-3.03,.12v9.51c0,.75,0,1.38-.02,1.91-.01,.52-.05,.97-.1,1.33l7.93-.12c1.22-.03,2.27-.23,3.15-.6,.89-.37,1.58-1.03,2.08-1.97,.5-.94,.75-2.23,.75-3.86h1.41l-.25,8.1h-21.43v-1.37c1.05-.06,1.77-.3,2.16-.73,.39-.43,.6-1.02,.64-1.79,.04-.76,.06-1.62,.06-2.6v-17.94c0-.55,.01-1.09,.04-1.6,.03-.51,.06-.98,.08-1.39-.5,.03-1,.06-1.5,.08-.5,.03-1,.06-1.49,.08v-1.83h19.97l.21,7.27h-1.37c0-1.63-.25-2.87-.75-3.72s-1.17-1.41-2.01-1.7c-.85-.29-1.79-.42-2.85-.4l-3.57,.08c-1.02,.03-1.76,.22-2.2,.58-.44,.36-.71,.89-.81,1.6-.1,.71-.15,1.63-.15,2.76v6.64l7.81,.04-.29-3.57h1.83v8.72h-1.37Z"/><path class="cls-1" d="M168.01,237.88c-.08-1.33-.4-2.59-.95-3.78-.55-1.19-1.36-2.16-2.41-2.91s-2.39-1.12-4.03-1.12c-1.72,0-3.03,.48-3.94,1.45-.91,.97-1.37,2.1-1.37,3.4,0,1.16,.33,2.14,1,2.93s1.53,1.48,2.6,2.08c1.07,.6,2.19,1.17,3.38,1.72,1.05,.47,2.1,.98,3.16,1.52,1.05,.54,2.01,1.16,2.86,1.85,.86,.69,1.54,1.52,2.06,2.47,.51,.96,.77,2.1,.77,3.43,0,1.52-.38,2.88-1.14,4.07-.76,1.19-1.86,2.13-3.3,2.8-1.44,.68-3.2,1.02-5.27,1.02-1.24,0-2.53-.18-3.86-.54-1.33-.36-2.51-.89-3.53-1.58l.21,1.79h-2.16l-.25-8.84h1.62c.14,2.44,.98,4.28,2.53,5.54,1.55,1.26,3.42,1.89,5.6,1.89,1.08,0,2.08-.2,2.99-.6,.91-.4,1.64-.99,2.18-1.76,.54-.78,.81-1.72,.81-2.82,0-1.25-.33-2.28-1-3.11-.66-.83-1.52-1.55-2.57-2.16-1.05-.61-2.17-1.19-3.36-1.74-1.05-.47-2.09-.97-3.11-1.49-1.03-.53-1.96-1.13-2.8-1.81-.84-.68-1.52-1.49-2.03-2.43-.51-.94-.77-2.08-.77-3.4,0-.72,.12-1.49,.37-2.32,.25-.83,.69-1.63,1.31-2.39s1.48-1.38,2.57-1.87c1.09-.49,2.48-.73,4.17-.73,1.05,0,2.23,.15,3.55,.44,1.31,.29,2.54,.85,3.67,1.68l-.17-1.79h2.12v9.14h-1.5Z"/><path class="cls-1" d="M191.55,237.88c-.08-1.33-.4-2.59-.95-3.78-.55-1.19-1.36-2.16-2.41-2.91s-2.39-1.12-4.03-1.12c-1.72,0-3.03,.48-3.94,1.45-.91,.97-1.37,2.1-1.37,3.4,0,1.16,.33,2.14,1,2.93s1.53,1.48,2.6,2.08c1.07,.6,2.19,1.17,3.38,1.72,1.05,.47,2.1,.98,3.16,1.52,1.05,.54,2.01,1.16,2.86,1.85,.86,.69,1.54,1.52,2.06,2.47,.51,.96,.77,2.1,.77,3.43,0,1.52-.38,2.88-1.14,4.07-.76,1.19-1.86,2.13-3.3,2.8-1.44,.68-3.2,1.02-5.27,1.02-1.24,0-2.53-.18-3.86-.54-1.33-.36-2.51-.89-3.53-1.58l.21,1.79h-2.16l-.25-8.84h1.62c.14,2.44,.98,4.28,2.53,5.54,1.55,1.26,3.42,1.89,5.6,1.89,1.08,0,2.08-.2,2.99-.6,.91-.4,1.64-.99,2.18-1.76,.54-.78,.81-1.72,.81-2.82,0-1.25-.33-2.28-1-3.11-.66-.83-1.52-1.55-2.57-2.16-1.05-.61-2.17-1.19-3.36-1.74-1.05-.47-2.09-.97-3.11-1.49-1.03-.53-1.96-1.13-2.8-1.81-.84-.68-1.52-1.49-2.03-2.43-.51-.94-.77-2.08-.77-3.4,0-.72,.12-1.49,.37-2.32,.25-.83,.69-1.63,1.31-2.39s1.48-1.38,2.57-1.87c1.09-.49,2.48-.73,4.17-.73,1.05,0,2.23,.15,3.55,.44,1.31,.29,2.54,.85,3.67,1.68l-.17-1.79h2.12v9.14h-1.5Z"/><path class="cls-1" d="M225.35,258.56c-1.22-2.77-2.45-5.53-3.7-8.28-1.25-2.75-2.46-5.54-3.65-8.37-.39-.89-.77-1.78-1.14-2.68-.37-.9-.73-1.81-1.08-2.72-.35-.91-.7-1.83-1.06-2.74,0,.31,0,.61-.02,.91-.02,.31-.02,.61-.02,.91-.03,1-.06,2.19-.11,3.59-.04,1.4-.09,2.89-.15,4.48s-.1,3.18-.12,4.78-.06,3.09-.08,4.5c-.03,.61-.05,1.22-.06,1.83-.01,.61-.05,1.18-.1,1.7,.52-.03,1.04-.06,1.56-.08,.51-.03,1.03-.06,1.56-.08v1.83h-7.93v-1.37c.86-.03,1.49-.21,1.89-.56,.4-.35,.66-.81,.77-1.39s.18-1.2,.21-1.87l.79-18.94c.03-.55,.05-1.11,.06-1.66,.01-.55,.03-1.09,.06-1.62-.5,.03-1,.05-1.5,.06-.5,.01-1,.03-1.5,.06v-1.79h6.35l7.14,16.48c.36,.83,.71,1.66,1.06,2.49,.35,.83,.71,1.66,1.08,2.49,.37,.83,.74,1.67,1.1,2.53h.08c.3-.75,.66-1.64,1.08-2.68,.42-1.04,.76-1.93,1.04-2.68,1.22-3.05,2.48-6.1,3.8-9.16,1.31-3.06,2.61-6.22,3.88-9.49h6.15v1.37c-.69-.03-1.26,.1-1.7,.4-.44,.29-.76,.77-.95,1.43-.2,.66-.26,1.56-.21,2.7l1.08,18.89c.06,.47,.08,.93,.08,1.37v1.2c.5-.03,1-.05,1.52-.06,.51-.01,1.02-.03,1.51-.06v1.83h-9.3v-1.37c.86-.03,1.5-.23,1.91-.62,.41-.39,.67-.94,.77-1.66,.1-.72,.12-1.61,.06-2.66l-.83-13.7c-.03-.44-.06-.89-.08-1.33-.03-.44-.06-.89-.08-1.33-.03-.44-.06-.89-.08-1.33-.08,.19-.17,.4-.27,.62-.1,.22-.19,.46-.27,.71l-9.34,23.09h-1.25Z"/><path class="cls-1" d="M245.28,258.15v-1.37c.83,0,1.47-.22,1.91-.66,.44-.44,.81-1.05,1.1-1.83,.29-.77,.63-1.67,1.02-2.7l8.56-23.29h1l9.26,23.63c.22,.58,.47,1.33,.75,2.24,.28,.91,.39,1.69,.33,2.33,.47-.03,.94-.06,1.41-.08,.47-.03,.94-.06,1.41-.08v1.83h-9.51v-1.37c1.05-.03,1.74-.26,2.08-.7,.33-.44,.46-.97,.37-1.58s-.22-1.16-.41-1.66l-1.45-3.9-10.8,.25-1.45,4.44c-.19,.66-.37,1.19-.52,1.58-.15,.39-.33,.82-.52,1.29,.55-.03,1.1-.06,1.64-.08s1.07-.06,1.6-.08v1.83h-7.76Zm7.64-10.76h9.59l-2.95-7.93c-.31-.86-.62-1.71-.93-2.55-.32-.84-.63-1.7-.94-2.55h-.08c-.28,.78-.56,1.55-.85,2.33-.29,.78-.59,1.56-.89,2.37l-2.95,8.35Z"/><path class="cls-1" d="M296.53,258.81l-16.57-22.26c-.25-.33-.49-.66-.73-.98-.23-.32-.48-.64-.73-.98h-.04l.12,17.77v2.08c0,.69-.03,1.37-.08,2.03,.5-.03,1-.06,1.5-.08s1-.06,1.5-.08v1.83h-7.6v-1.37c.86,0,1.47-.19,1.85-.56,.37-.37,.62-.82,.73-1.33,.11-.51,.17-.98,.17-1.39l.04-19.97v-2.78c-.44,.03-.9,.06-1.37,.08-.47,.03-.94,.06-1.41,.08v-1.83h4.94l15.57,20.84c.36,.47,.71,.94,1.06,1.41,.35,.47,.7,.94,1.06,1.41h.04l.04-19.02c0-.55,.01-1.09,.04-1.6,.03-.51,.06-.98,.08-1.39-.5,.03-1,.06-1.5,.08s-1,.06-1.5,.08v-1.83h7.64v1.37c-1.02,.03-1.73,.26-2.12,.71-.39,.44-.6,1.04-.62,1.79s-.04,1.62-.04,2.62l-.08,23.25h-1.99Z"/><path class="cls-1" d="M302.92,258.15v-1.37c.83,0,1.47-.22,1.91-.66,.44-.44,.81-1.05,1.1-1.83,.29-.77,.63-1.67,1.02-2.7l8.56-23.29h1l9.26,23.63c.22,.58,.47,1.33,.75,2.24,.28,.91,.39,1.69,.33,2.33,.47-.03,.94-.06,1.41-.08,.47-.03,.94-.06,1.41-.08v1.83h-9.51v-1.37c1.05-.03,1.74-.26,2.08-.7,.33-.44,.46-.97,.37-1.58s-.22-1.16-.41-1.66l-1.45-3.9-10.8,.25-1.45,4.44c-.19,.66-.37,1.19-.52,1.58-.15,.39-.33,.82-.52,1.29,.55-.03,1.1-.06,1.64-.08s1.07-.06,1.6-.08v1.83h-7.76Zm7.64-10.76h9.59l-2.95-7.93c-.31-.86-.62-1.71-.93-2.55-.32-.84-.63-1.7-.94-2.55h-.08c-.28,.78-.56,1.55-.85,2.33-.29,.78-.59,1.56-.89,2.37l-2.95,8.35Z"/><path class="cls-1" d="M345.03,258.81c-2.77,0-5.22-.58-7.35-1.74-2.13-1.16-3.79-2.84-4.98-5.02-1.19-2.19-1.79-4.79-1.79-7.81,0-1.97,.3-3.88,.89-5.75s1.5-3.56,2.7-5.09c1.2-1.52,2.71-2.73,4.53-3.63,1.81-.9,3.92-1.35,6.33-1.35,1,0,2.01,.09,3.03,.27,1.02,.18,2.01,.44,2.97,.79,.95,.35,1.82,.75,2.6,1.23l-.17-1.99h2.28v9.51h-1.5c-.11-1.74-.57-3.22-1.39-4.42-.82-1.2-1.88-2.12-3.18-2.76-1.3-.64-2.76-.95-4.36-.95-1.47,0-2.85,.32-4.13,.98-1.29,.65-2.42,1.56-3.4,2.74-.98,1.18-1.75,2.57-2.31,4.17-.55,1.61-.83,3.38-.83,5.31,0,2.6,.47,4.93,1.41,6.98,.94,2.05,2.25,3.65,3.92,4.82,1.67,1.16,3.61,1.74,5.79,1.74,.75,0,1.53-.07,2.35-.21,.82-.14,1.63-.37,2.45-.69,.82-.32,1.59-.71,2.31-1.18v-9.09c-.47,.03-.95,.06-1.45,.08-.5,.03-.98,.06-1.45,.08v-1.83h9.38v1.37c-.78,0-1.37,.2-1.79,.6-.41,.4-.71,.89-.87,1.45-.17,.57-.26,1.12-.29,1.66-.03,.54-.04,.95-.04,1.23v6.35h-1.12c-.44,0-1.05,.08-1.83,.25-.78,.17-1.66,.44-2.66,.83-.86,.33-1.85,.59-2.99,.79-1.14,.19-2.16,.29-3.07,.29Z"/><path class="cls-1" d="M377.29,247.39c0-1.22-.17-2.09-.5-2.62-.33-.52-.86-.84-1.58-.95s-1.67-.14-2.86-.08l-3.03,.12v9.51c0,.75,0,1.38-.02,1.91-.01,.52-.05,.97-.1,1.33l7.93-.12c1.22-.03,2.27-.23,3.15-.6,.89-.37,1.58-1.03,2.08-1.97,.5-.94,.75-2.23,.75-3.86h1.41l-.25,8.1h-21.43v-1.37c1.05-.06,1.77-.3,2.16-.73,.39-.43,.6-1.02,.64-1.79,.04-.76,.06-1.62,.06-2.6v-17.94c0-.55,.01-1.09,.04-1.6,.03-.51,.06-.98,.08-1.39-.5,.03-1,.06-1.5,.08-.5,.03-1,.06-1.49,.08v-1.83h19.97l.21,7.27h-1.37c0-1.63-.25-2.87-.75-3.72s-1.17-1.41-2.01-1.7c-.85-.29-1.79-.42-2.85-.4l-3.57,.08c-1.02,.03-1.76,.22-2.2,.58-.44,.36-.71,.89-.81,1.6-.1,.71-.15,1.63-.15,2.76v6.64l7.81,.04-.29-3.57h1.83v8.72h-1.37Z"/><path class="cls-1" d="M404.32,258.56c-1.22-2.77-2.45-5.53-3.7-8.28-1.25-2.75-2.46-5.54-3.65-8.37-.39-.89-.77-1.78-1.14-2.68-.37-.9-.73-1.81-1.08-2.72-.35-.91-.7-1.83-1.06-2.74,0,.31,0,.61-.02,.91-.02,.31-.02,.61-.02,.91-.03,1-.06,2.19-.11,3.59-.04,1.4-.09,2.89-.15,4.48-.06,1.59-.1,3.18-.12,4.78s-.06,3.09-.08,4.5c-.03,.61-.05,1.22-.06,1.83-.01,.61-.05,1.18-.1,1.7,.52-.03,1.04-.06,1.56-.08,.51-.03,1.03-.06,1.56-.08v1.83h-7.93v-1.37c.86-.03,1.49-.21,1.89-.56,.4-.35,.66-.81,.77-1.39s.18-1.2,.21-1.87l.79-18.94c.03-.55,.05-1.11,.06-1.66,.01-.55,.03-1.09,.06-1.62-.5,.03-1,.05-1.5,.06-.5,.01-1,.03-1.5,.06v-1.79h6.35l7.14,16.48c.36,.83,.71,1.66,1.06,2.49,.35,.83,.71,1.66,1.08,2.49,.37,.83,.74,1.67,1.1,2.53h.08c.3-.75,.66-1.64,1.08-2.68,.42-1.04,.76-1.93,1.04-2.68,1.22-3.05,2.48-6.1,3.8-9.16,1.31-3.06,2.61-6.22,3.88-9.49h6.15v1.37c-.69-.03-1.26,.1-1.7,.4-.44,.29-.76,.77-.95,1.43-.2,.66-.26,1.56-.21,2.7l1.08,18.89c.06,.47,.08,.93,.08,1.37v1.2c.5-.03,1-.05,1.52-.06,.51-.01,1.02-.03,1.51-.06v1.83h-9.3v-1.37c.86-.03,1.5-.23,1.91-.62,.41-.39,.67-.94,.77-1.66,.1-.72,.12-1.61,.06-2.66l-.83-13.7c-.03-.44-.06-.89-.08-1.33-.03-.44-.06-.89-.08-1.33-.03-.44-.06-.89-.08-1.33-.08,.19-.17,.4-.27,.62-.1,.22-.19,.46-.27,.71l-9.34,23.09h-1.25Z"/><path class="cls-1" d="M441.24,247.39c0-1.22-.17-2.09-.5-2.62-.33-.52-.86-.84-1.58-.95s-1.67-.14-2.86-.08l-3.03,.12v9.51c0,.75,0,1.38-.02,1.91-.01,.52-.05,.97-.1,1.33l7.93-.12c1.22-.03,2.27-.23,3.15-.6,.89-.37,1.58-1.03,2.08-1.97,.5-.94,.75-2.23,.75-3.86h1.41l-.25,8.1h-21.43v-1.37c1.05-.06,1.77-.3,2.16-.73,.39-.43,.6-1.02,.64-1.79,.04-.76,.06-1.62,.06-2.6v-17.94c0-.55,.01-1.09,.04-1.6,.03-.51,.06-.98,.08-1.39-.5,.03-1,.06-1.5,.08-.5,.03-1,.06-1.49,.08v-1.83h19.97l.21,7.27h-1.37c0-1.63-.25-2.87-.75-3.72s-1.17-1.41-2.01-1.7c-.85-.29-1.79-.42-2.85-.4l-3.57,.08c-1.02,.03-1.76,.22-2.2,.58-.44,.36-.71,.89-.81,1.6-.1,.71-.15,1.63-.15,2.76v6.64l7.81,.04-.29-3.57h1.83v8.72h-1.37Z"/><path class="cls-1" d="M475.33,258.81l-16.57-22.26c-.25-.33-.49-.66-.73-.98-.23-.32-.48-.64-.73-.98h-.04l.12,17.77v2.08c0,.69-.03,1.37-.08,2.03,.5-.03,1-.06,1.5-.08s1-.06,1.5-.08v1.83h-7.6v-1.37c.86,0,1.47-.19,1.85-.56,.37-.37,.62-.82,.73-1.33,.11-.51,.17-.98,.17-1.39l.04-19.97v-2.78c-.44,.03-.9,.06-1.37,.08-.47,.03-.94,.06-1.41,.08v-1.83h4.94l15.57,20.84c.36,.47,.71,.94,1.06,1.41,.35,.47,.7,.94,1.06,1.41h.04l.04-19.02c0-.55,.01-1.09,.04-1.6,.03-.51,.06-.98,.08-1.39-.5,.03-1,.06-1.5,.08s-1,.06-1.5,.08v-1.83h7.64v1.37c-1.02,.03-1.73,.26-2.12,.71-.39,.44-.6,1.04-.62,1.79s-.04,1.62-.04,2.62l-.08,23.25h-1.99Z"/><path class="cls-1" d="M506.02,237.84c-.03-1.63-.19-2.99-.5-4.07-.31-1.08-.84-1.89-1.6-2.43-.76-.54-1.86-.79-3.3-.77h-3.53l-.04,22.63c0,.75,0,1.39-.02,1.93-.01,.54-.05,.99-.1,1.35,.58-.03,1.16-.06,1.72-.08,.57-.03,1.14-.06,1.72-.08v1.83h-9.76v-1.37c1.05-.06,1.76-.3,2.14-.75,.37-.44,.58-1.04,.62-1.81,.04-.76,.06-1.61,.06-2.55l.04-21.05-4.28,.04c-1.75,0-2.98,.58-3.7,1.75-.72,1.16-1.08,2.98-1.08,5.44h-1.54l.25-8.76h24.21l.25,8.76h-1.58Z"/><path class="cls-1" d="M154.87,280.28c-1.03,.03-1.74,.26-2.14,.71-.4,.44-.62,1.04-.66,1.79s-.06,1.62-.06,2.62v17.65c0,.75,0,1.39-.02,1.93-.01,.54-.05,.99-.1,1.35,.5-.03,1-.06,1.5-.08s1-.06,1.5-.08v1.83h-9.34v-1.37c1.05-.06,1.77-.3,2.16-.73,.39-.43,.6-1.02,.64-1.79,.04-.76,.06-1.62,.06-2.6v-17.94c0-.55,.01-1.09,.04-1.6,.03-.51,.06-.98,.08-1.39-.5,.03-1,.06-1.5,.08-.5,.03-1,.06-1.49,.08v-1.83h9.34v1.37Z"/><path class="cls-1" d="M182.15,308.64l-16.57-22.26c-.25-.33-.49-.66-.73-.98-.23-.32-.48-.64-.73-.98h-.04l.12,17.77v2.08c0,.69-.03,1.37-.08,2.03,.5-.03,1-.06,1.5-.08s1-.06,1.5-.08v1.83h-7.6v-1.37c.86,0,1.47-.19,1.85-.56,.37-.37,.62-.82,.73-1.33,.11-.51,.17-.98,.17-1.39l.04-19.97v-2.78c-.44,.03-.9,.06-1.37,.08-.47,.03-.94,.06-1.41,.08v-1.83h4.94l15.57,20.84c.36,.47,.71,.94,1.06,1.41,.35,.47,.7,.94,1.06,1.41h.04l.04-19.02c0-.55,.01-1.09,.04-1.6,.03-.51,.06-.98,.08-1.39-.5,.03-1,.06-1.5,.08s-1,.06-1.5,.08v-1.83h7.64v1.37c-1.02,.03-1.73,.26-2.12,.71-.39,.44-.6,1.04-.62,1.79s-.04,1.62-.04,2.62l-.08,23.25h-1.99Z"/><path class="cls-1" d="M207.4,287.71c-.08-1.33-.4-2.59-.95-3.78-.55-1.19-1.36-2.16-2.41-2.91s-2.39-1.12-4.03-1.12c-1.72,0-3.03,.48-3.94,1.45-.91,.97-1.37,2.1-1.37,3.4,0,1.16,.33,2.14,1,2.93s1.53,1.48,2.6,2.08c1.07,.6,2.19,1.17,3.38,1.72,1.05,.47,2.1,.98,3.16,1.52,1.05,.54,2.01,1.16,2.86,1.85,.86,.69,1.54,1.52,2.06,2.47,.51,.96,.77,2.1,.77,3.43,0,1.52-.38,2.88-1.14,4.07-.76,1.19-1.86,2.13-3.3,2.8-1.44,.68-3.2,1.02-5.27,1.02-1.24,0-2.53-.18-3.86-.54-1.33-.36-2.51-.89-3.53-1.58l.21,1.79h-2.16l-.25-8.84h1.62c.14,2.44,.98,4.28,2.53,5.54,1.55,1.26,3.42,1.89,5.6,1.89,1.08,0,2.08-.2,2.99-.6,.91-.4,1.64-.99,2.18-1.76,.54-.78,.81-1.72,.81-2.82,0-1.25-.33-2.28-1-3.11-.66-.83-1.52-1.55-2.57-2.16-1.05-.61-2.17-1.19-3.36-1.74-1.05-.47-2.09-.97-3.11-1.49-1.03-.53-1.96-1.13-2.8-1.81-.84-.68-1.52-1.49-2.03-2.43-.51-.94-.77-2.08-.77-3.4,0-.72,.12-1.49,.37-2.32,.25-.83,.69-1.63,1.31-2.39s1.48-1.38,2.57-1.87c1.09-.49,2.48-.73,4.17-.73,1.05,0,2.23,.15,3.55,.44,1.31,.29,2.54,.85,3.67,1.68l-.17-1.79h2.12v9.14h-1.5Z"/><path class="cls-1" d="M236.38,287.67c-.03-1.63-.19-2.99-.5-4.07-.31-1.08-.84-1.89-1.6-2.43-.76-.54-1.86-.79-3.3-.77h-3.53l-.04,22.63c0,.75,0,1.39-.02,1.93-.01,.54-.05,.99-.1,1.35,.58-.03,1.16-.06,1.72-.08,.57-.03,1.14-.06,1.72-.08v1.83h-9.76v-1.37c1.05-.06,1.76-.3,2.14-.75,.37-.44,.58-1.04,.62-1.81,.04-.76,.06-1.61,.06-2.55l.04-21.05-4.28,.04c-1.75,0-2.98,.58-3.7,1.75-.72,1.16-1.08,2.98-1.08,5.44h-1.54l.25-8.76h24.21l.25,8.76h-1.58Z"/><path class="cls-1" d="M250.54,280.28c-1.03,.03-1.74,.26-2.14,.71-.4,.44-.62,1.04-.66,1.79s-.06,1.62-.06,2.62v17.65c0,.75,0,1.39-.02,1.93-.01,.54-.05,.99-.1,1.35,.5-.03,1-.06,1.5-.08s1-.06,1.5-.08v1.83h-9.34v-1.37c1.05-.06,1.77-.3,2.16-.73,.39-.43,.6-1.02,.64-1.79,.04-.76,.06-1.62,.06-2.6v-17.94c0-.55,.01-1.09,.04-1.6,.03-.51,.06-.98,.08-1.39-.5,.03-1,.06-1.5,.08-.5,.03-1,.06-1.49,.08v-1.83h9.34v1.37Z"/><path class="cls-1" d="M276.86,287.67c-.03-1.63-.19-2.99-.5-4.07-.31-1.08-.84-1.89-1.6-2.43-.76-.54-1.86-.79-3.3-.77h-3.53l-.04,22.63c0,.75,0,1.39-.02,1.93-.01,.54-.05,.99-.1,1.35,.58-.03,1.16-.06,1.72-.08,.57-.03,1.14-.06,1.72-.08v1.83h-9.76v-1.37c1.05-.06,1.76-.3,2.14-.75,.37-.44,.58-1.04,.62-1.81,.04-.76,.06-1.61,.06-2.55l.04-21.05-4.28,.04c-1.75,0-2.98,.58-3.7,1.75-.72,1.16-1.08,2.98-1.08,5.44h-1.54l.25-8.76h24.21l.25,8.76h-1.58Z"/><path class="cls-1" d="M289.99,280.28c-.92,0-1.57,.2-1.97,.58-.4,.39-.64,.84-.73,1.35-.08,.51-.12,.96-.12,1.35v10.46c0,1.55,.1,3.05,.31,4.51,.21,1.45,.6,2.76,1.18,3.92,.58,1.16,1.45,2.09,2.6,2.78s2.65,1.04,4.5,1.04c1.99,0,3.62-.47,4.88-1.41,1.26-.94,2.19-2.24,2.78-3.9s.91-3.57,.94-5.73l.12-11.67c0-.55,.01-1.09,.04-1.6,.03-.51,.06-.98,.08-1.39-.5,.03-.99,.06-1.47,.08-.49,.03-.98,.06-1.47,.08v-1.83h7.72v1.37c-1.05,.03-1.78,.26-2.18,.71-.4,.44-.62,1.04-.66,1.79s-.06,1.62-.06,2.62l-.08,9.63c0,1.8-.19,3.52-.58,5.15-.39,1.63-1.02,3.09-1.89,4.36-.87,1.27-2.02,2.28-3.45,3.01-1.43,.73-3.18,1.1-5.25,1.1-2.22,0-4.08-.29-5.59-.87-1.51-.58-2.71-1.48-3.61-2.7-.9-1.22-1.54-2.76-1.93-4.61-.39-1.85-.58-4.07-.58-6.64v-8.43c0-.72,.02-1.57,.06-2.55,.04-.98,.08-1.74,.1-2.26-.5,.03-1,.05-1.5,.06-.5,.01-1,.03-1.49,.06v-1.79h9.3v1.37Z"/><path class="cls-1" d="M334.67,287.67c-.03-1.63-.19-2.99-.5-4.07-.31-1.08-.84-1.89-1.6-2.43-.76-.54-1.86-.79-3.3-.77h-3.53l-.04,22.63c0,.75,0,1.39-.02,1.93-.01,.54-.05,.99-.1,1.35,.58-.03,1.16-.06,1.72-.08,.57-.03,1.14-.06,1.72-.08v1.83h-9.76v-1.37c1.05-.06,1.76-.3,2.14-.75,.37-.44,.58-1.04,.62-1.81,.04-.76,.06-1.61,.06-2.55l.04-21.05-4.28,.04c-1.75,0-2.98,.58-3.7,1.75-.72,1.16-1.08,2.98-1.08,5.44h-1.54l.25-8.76h24.21l.25,8.76h-1.58Z"/><path class="cls-1" d="M353.93,297.22c0-1.22-.17-2.09-.5-2.62-.33-.52-.86-.84-1.58-.95s-1.67-.14-2.86-.08l-3.03,.12v9.51c0,.75,0,1.38-.02,1.91-.01,.52-.05,.97-.1,1.33l7.93-.12c1.22-.03,2.27-.23,3.15-.6,.89-.37,1.58-1.03,2.08-1.97,.5-.94,.75-2.23,.75-3.86h1.41l-.25,8.1h-21.43v-1.37c1.05-.06,1.77-.3,2.16-.73,.39-.43,.6-1.02,.64-1.79,.04-.76,.06-1.62,.06-2.6v-17.94c0-.55,.01-1.09,.04-1.6,.03-.51,.06-.98,.08-1.39-.5,.03-1,.06-1.5,.08-.5,.03-1,.06-1.49,.08v-1.83h19.97l.21,7.27h-1.37c0-1.63-.25-2.87-.75-3.72s-1.17-1.41-2.01-1.7c-.85-.29-1.79-.42-2.85-.4l-3.57,.08c-1.02,.03-1.76,.22-2.2,.58-.44,.36-.71,.89-.81,1.6-.1,.71-.15,1.63-.15,2.76v6.64l7.81,.04-.29-3.57h1.83v8.72h-1.37Z"/></g><g><path class="cls-1" d="M244.34,77.23l-50.49-35.32V16.24c3.11,0,6.21,.01,9.32,.04l40.63,58.07h0c0,1.02,.19,1.97,.53,2.86t.01,.02Z"/><path class="cls-1" d="M244.95,70.12c-.5,.84-.85,1.77-1.02,2.76l-26.2-56.14c1.62,.1,3.22,.21,4.84,.35,6.06,.51,12.05,1.33,17.99,2.63l4.39,50.4Z"/><path class="cls-1" d="M246.85,80.71l-53-4.63v-21.4l51.12,23.86c.49,.83,1.14,1.57,1.88,2.17Z"/><path class="cls-1" d="M270.87,18.34l-22.75,48.74h-.01c-.87,.48-1.64,1.1-2.29,1.85l4.07-46.7c.23,.07,.45,.14,.68,.22,.47,.16,.96,.24,1.45,.24s.98-.08,1.45-.24c5.72-1.88,11.53-3.19,17.4-4.11Z"/><path class="cls-1" d="M310.18,16.24v9.4l-57.83,40.47h-.01c-.1,0-.21,0-.32,0-.9,0-1.75,.15-2.55,.41l34.72-49.62c8.59-.61,17.28-.65,25.99-.65Z"/><path class="cls-1" d="M310.18,39.99v22.73l-53.71,4.68h-.01c-.8-.51-1.7-.9-2.66-1.11l56.38-26.3Z"/><path class="cls-1" d="M257.6,68.28c1.62,1.5,2.64,3.66,2.64,6.05,0,3.2-1.82,5.97-4.5,7.32-.6-1.7-1.03-3.35-1.28-4.91,.62-.62,1.01-1.47,1.01-2.41,0-1.9-1.55-3.45-3.45-3.45s-3.44,1.55-3.44,3.45c0,.92,.36,1.76,.96,2.38-.2,1.31-.55,2.71-1.03,4.14-.05,.21-.13,.42-.21,.63l-.26,.02-54.19,4.73v30.31c0,8.03,3.64,15.68,9.09,22.64,5.45,6.95,12.72,13.23,19.99,18.48,7.28,5.27,14.55,9.53,20,12.47,5.45,2.94,9.09,4.57,9.09,4.57,0,0,3.63-1.63,9.08-4.57,5.46-2.94,12.73-7.2,20-12.47,7.27-5.25,14.55-11.53,19.99-18.48,5.45-6.96,9.09-14.61,9.09-22.64v-43.67l-52.58-4.59Zm-5.33,83.4s-.01,0-.02,.01c-.01-.01-.02-.01-.03-.01-8.87-1.8-8.24-4.92-8.24-4.92h16.53s.64,3.12-8.24,4.92Zm11.85-6.55h-24.41v-9.77h24.41v9.77Zm-3-10.93h-18.25s2.39-21.06-10.24-28.8c10.24-8.99,17.83-21.93,18.1-31.07v36.53c-1.1,.5-1.86,1.6-1.86,2.89,0,1.74,1.4,3.18,3.15,3.18s3.15-1.44,3.15-3.18c0-1.29-.76-2.39-1.9-2.89v-36.53c.27,9.14,7.85,22.08,18.14,31.07-12.68,7.74-10.29,28.8-10.29,28.8Z"/><path class="cls-1" d="M248.04,81.5c.07,.05,.14,.09,.22,.12,.01-.04,.03-.09,.04-.14l-.26,.02Z"/><path class="cls-1" d="M310.18,0V10.82c-7.37,0-14.74,.03-22.04,.41-4.89,.24-9.74,.65-14.57,1.3h0c-6.79,.93-13.5,2.34-20.1,4.5-.47,.15-.96,.24-1.45,.24s-.98-.09-1.45-.24c-.08-.03-.14-.05-.22-.07-3.39-1.11-6.82-2.02-10.27-2.75-5.77-1.25-11.62-2.04-17.51-2.54-2.47-.21-4.96-.36-7.44-.48-2.16-.11-4.33-.19-6.5-.24-4.91-.12-9.84-.13-14.78-.13V0c9.63,0,19.24,.05,28.71,.85,5.56,.47,11.08,1.19,16.54,2.33,3.85,.79,7.67,1.79,11.45,3.03,.23,.08,.46,.13,.7,.17,.25,.04,.51,.06,.75,.06,.49,0,.98-.08,1.45-.23,9.15-3.01,18.51-4.56,28-5.36,9.48-.8,19.09-.85,28.71-.85Z"/></g><g><path class="cls-1" d="M325.95,148.74c-12.48,5.97-25.29,10.86-38.29,14.23l5.91,1c3.11,.58,6.23,.87,9.42,1.19l4.81,.47c1.62,.17,3.21,.18,4.84,.27l5.3,13.74,.87,2.25,4.85-1.92c1.62-.64,3.24-1.27,4.81-2.01l9.48-4.3-3.26-1.17c-2.69-.98-5.34-1.98-7.95-2.99-2.61-1.02-5.16-2.02-7.74-3.2,1.1-2.31,2.11-4.75,3.09-7.15,.98-2.4,1.93-4.78,2.84-7.14l1.02-3.27Z"/><path class="cls-1" d="M234.81,187.42c-.2-.34-.47-.6-.8-.78-.33-.17-.69-.27-1.06-.3-.23-.03-.45-.02-.64,.03-.2,.05-.37,.19-.51,.42-.15,.24-.25,.63-.32,1.18-.16,1.32-.24,1.98-.4,3.29,.46,.05,.7,.08,1.16,.12,.64,.06,1.15-.02,1.54-.24,.39-.22,.69-.54,.88-.96,.2-.42,.32-.88,.37-1.39,.05-.57-.02-1.03-.22-1.37Zm.33,6.83c-.26-.41-.6-.71-1.03-.91-.44-.2-.89-.32-1.38-.38-.38-.04-.7-.07-.97-.11-.28-.03-.56-.05-.87-.08-.17,1.39-.25,2.08-.42,3.47-.05,.38-.1,.74-.16,1.08-.05,.33-.11,.59-.16,.77,.28,.04,.55,.07,.8,.1s.5,.05,.75,.07c.26,.02,.5,.05,.73,.07,.95,.08,1.7-.15,2.18-.62,.49-.47,.76-1.1,.83-1.88,.05-.65-.05-1.18-.3-1.58Zm0,0c-.26-.41-.6-.71-1.03-.91-.44-.2-.89-.32-1.38-.38-.38-.04-.7-.07-.97-.11-.28-.03-.56-.05-.87-.08-.17,1.39-.25,2.08-.42,3.47-.05,.38-.1,.74-.16,1.08-.05,.33-.11,.59-.16,.77,.28,.04,.55,.07,.8,.1s.5,.05,.75,.07c.26,.02,.5,.05,.73,.07,.95,.08,1.7-.15,2.18-.62,.49-.47,.76-1.1,.83-1.88,.05-.65-.05-1.18-.3-1.58Zm-.33-6.83c-.2-.34-.47-.6-.8-.78-.33-.17-.69-.27-1.06-.3-.23-.03-.45-.02-.64,.03-.2,.05-.37,.19-.51,.42-.15,.24-.25,.63-.32,1.18-.16,1.32-.24,1.98-.4,3.29,.46,.05,.7,.08,1.16,.12,.64,.06,1.15-.02,1.54-.24,.39-.22,.69-.54,.88-.96,.2-.42,.32-.88,.37-1.39,.05-.57-.02-1.03-.22-1.37Zm0,0c-.2-.34-.47-.6-.8-.78-.33-.17-.69-.27-1.06-.3-.23-.03-.45-.02-.64,.03-.2,.05-.37,.19-.51,.42-.15,.24-.25,.63-.32,1.18-.16,1.32-.24,1.98-.4,3.29,.46,.05,.7,.08,1.16,.12,.64,.06,1.15-.02,1.54-.24,.39-.22,.69-.54,.88-.96,.2-.42,.32-.88,.37-1.39,.05-.57-.02-1.03-.22-1.37Zm.33,6.83c-.26-.41-.6-.71-1.03-.91-.44-.2-.89-.32-1.38-.38-.38-.04-.7-.07-.97-.11-.28-.03-.56-.05-.87-.08-.17,1.39-.25,2.08-.42,3.47-.05,.38-.1,.74-.16,1.08-.05,.33-.11,.59-.16,.77,.28,.04,.55,.07,.8,.1s.5,.05,.75,.07c.26,.02,.5,.05,.73,.07,.95,.08,1.7-.15,2.18-.62,.49-.47,.76-1.1,.83-1.88,.05-.65-.05-1.18-.3-1.58Zm0,0c-.26-.41-.6-.71-1.03-.91-.44-.2-.89-.32-1.38-.38-.38-.04-.7-.07-.97-.11-.28-.03-.56-.05-.87-.08-.17,1.39-.25,2.08-.42,3.47-.05,.38-.1,.74-.16,1.08-.05,.33-.11,.59-.16,.77,.28,.04,.55,.07,.8,.1s.5,.05,.75,.07c.26,.02,.5,.05,.73,.07,.95,.08,1.7-.15,2.18-.62,.49-.47,.76-1.1,.83-1.88,.05-.65-.05-1.18-.3-1.58Zm-1.36-3.11c.39-.22,.69-.54,.88-.96,.2-.42,.32-.88,.37-1.39,.05-.57-.02-1.03-.22-1.37-.2-.34-.47-.6-.8-.78-.33-.17-.69-.27-1.06-.3-.23-.03-.45-.02-.64,.03-.2,.05-.37,.19-.51,.42-.15,.24-.25,.63-.32,1.18-.16,1.32-.24,1.98-.4,3.29,.46,.05,.7,.08,1.16,.12,.64,.06,1.15-.02,1.54-.24Zm88.31-.73l-3.28-8.52-.87-2.25-4.15-10.77-1.15-2.97c-1.96,.75-3.92,1.48-5.89,2.18-.23,.08-.45,.15-.68,.23-1.13,.41-2.27,.79-3.41,1.16-.32,.11-.64,.21-.96,.32-1.69,.56-3.39,1.09-5.08,1.58h-.02c-2.08,.63-4.17,1.21-6.26,1.76h-.05c-7.34,1.92-14.78,3.39-22.26,4.3-12.55,1.58-25.23,1.61-37.69-.01-6.2-.78-12.34-2-18.38-3.6-.03-.01-.06-.01-.09-.03-.45-.11-.89-.23-1.33-.36-2.6-.71-5.18-1.49-7.74-2.35-.03-.01-.07-.02-.1-.04-.69-.22-1.37-.46-2.06-.71l-.15-.05c-2-.7-3.98-1.45-5.95-2.24-.17-.06-.35-.13-.53-.2-.78-.31-1.55-.63-2.33-.96l-5.71,13.58-.94,2.22-3.54,8.42-1.14,2.73c14.65,6.17,30.29,10.57,46.25,12.58,14.99,1.95,30.2,1.9,45,.03,17.92-2.19,35.2-6.97,51.55-13.27l-1.06-2.76Zm-129.12-4.09c-1.95,0-3.54-1.58-3.54-3.54s1.59-3.55,3.54-3.55,3.55,1.59,3.55,3.55-1.59,3.54-3.55,3.54Zm45.22,12.13c-.54,.61-1.26,1.03-2.16,1.28-.9,.25-1.91,.32-3.02,.21-3.24-.33-4.86-.54-8.09-1.05,.09-.56,.14-.83,.22-1.39,.37,.04,.67,.04,.93,.01,.25-.03,.46-.17,.63-.4,.17-.24,.3-.64,.38-1.2,.48-3.24,.72-4.87,1.19-8.11,.06-.38,.12-.75,.19-1.09,.08-.35,.13-.62,.18-.8-.24-.02-.52-.05-.87-.1-.35-.04-.6-.07-.76-.08,.1-.65,.15-.98,.26-1.63,.98,.14,1.96,.28,2.95,.41,.99,.13,1.98,.25,2.96,.34,1.7,.18,3.04,.62,4,1.34,.96,.73,1.38,1.75,1.21,3.05-.06,.4-.22,.8-.49,1.17-.26,.38-.64,.7-1.14,.98-.49,.27-1.1,.47-1.83,.59v.02c1.48,.37,2.55,.92,3.22,1.69,.66,.77,.98,1.59,.92,2.47-.05,.93-.35,1.69-.88,2.29Zm16.6,2.06c-.02-.56-.04-.85-.06-1.41,.36-.03,.67-.09,.92-.18,.26-.08,.45-.26,.57-.52,.11-.27,.14-.68,.07-1.25-.18-1.81-.27-2.71-.45-4.52-.01-.17-.05-.46-.1-.88-.06-.42-.11-.88-.16-1.39-.05-.5-.1-.97-.14-1.41-.04,.1-.08,.2-.11,.29-.04,.1-.07,.2-.1,.3-1.47,4.55-2.28,6.81-4.04,11.32-.89,.02-1.34,.02-2.23,.03-.56-1.18-1.09-2.35-1.61-3.52-.52-1.17-1.03-2.35-1.53-3.52-.12-.28-.27-.66-.45-1.16-.18-.49-.37-1.06-.55-1.71-.19-.64-.36-1.31-.5-2,.01,.8,.01,1.55,.01,2.26s-.03,1.39-.05,2.02c-.01,.31-.02,.63-.02,.96-.01,.33-.02,.66-.04,.98-.01,.31-.03,.64-.03,.96-.01,.32-.02,.64-.03,.97-.01,.39-.03,.76-.06,1.11-.03,.36-.07,.63-.1,.81,.26-.02,.59-.03,.98-.03h.81c0,.66-.01,.99-.02,1.65-2.18-.03-3.27-.06-5.45-.17,.02-.57,.04-.85,.07-1.41,.36,0,.67-.03,.92-.09,.24-.06,.44-.21,.58-.47,.15-.25,.23-.66,.25-1.23,.19-3.27,.28-4.91,.46-8.18,.02-.39,.05-.76,.08-1.11,.03-.36,.05-.63,.07-.81-.23,0-.52,0-.87-.01-.34,0-.6-.01-.76,0,.04-.66,.05-.99,.09-1.65,1.89,.1,2.84,.13,4.74,.15,1.25,3.33,1.92,4.99,3.34,8.29,.14,.32,.3,.7,.47,1.14,.17,.43,.35,.85,.51,1.25,.16,.4,.28,.73,.36,.97h.03c.19-.51,.37-1,.52-1.47,.16-.48,.33-.94,.5-1.38,.55-1.5,1.08-3,1.59-4.49,.5-1.49,1-2.99,1.48-4.49,1.98-.1,2.97-.18,4.95-.36,.05,.56,.07,.85,.13,1.41-.32,.04-.6,.11-.83,.2-.24,.09-.42,.27-.52,.53-.1,.26-.12,.68-.06,1.26,.39,3.26,.59,4.88,1.01,8.14,.06,.38,.09,.75,.09,1.11-.01,.36-.01,.63-.03,.82,.26-.05,.59-.1,.97-.14,.39-.04,.66-.07,.82-.09,.06,.66,.09,.99,.15,1.64-2.65,.26-3.98,.35-6.64,.48Zm8.84-.7c-.06-.56-.1-.84-.16-1.4,.36-.06,.66-.14,.9-.24,.23-.1,.4-.28,.5-.55,.1-.27,.12-.69,.05-1.26-.39-3.25-.59-4.88-.99-8.13-.05-.39-.08-.75-.1-1.11-.02-.36-.04-.63-.05-.82-.22,.05-.51,.09-.86,.14-.34,.05-.59,.09-.75,.12-.07-.66-.11-.98-.18-1.64,2.45-.27,3.68-.43,6.12-.82,.09,.56,.13,.84,.22,1.39-.31,.07-.58,.15-.8,.26-.22,.1-.37,.29-.46,.55-.08,.27-.08,.69,0,1.27,.47,3.24,.71,4.86,1.19,8.11,.05,.38,.1,.75,.14,1.1,.03,.36,.05,.63,.04,.82,.25-.07,.56-.13,.95-.2,.38-.06,.65-.11,.8-.13,.11,.65,.16,.97,.26,1.62-2.72,.43-4.09,.62-6.82,.92Zm45.96-13.49c-1.95,0-3.54-1.58-3.54-3.54s1.59-3.55,3.54-3.55,3.55,1.59,3.55,3.55-1.59,3.54-3.55,3.54Zm-75.48,7.02c-.44-.2-.89-.32-1.38-.38-.38-.04-.7-.07-.97-.11-.28-.03-.56-.05-.87-.08-.17,1.39-.25,2.08-.42,3.47-.05,.38-.1,.74-.16,1.08-.05,.33-.11,.59-.16,.77,.28,.04,.55,.07,.8,.1s.5,.05,.75,.07c.26,.02,.5,.05,.73,.07,.95,.08,1.7-.15,2.18-.62,.49-.47,.76-1.1,.83-1.88,.05-.65-.05-1.18-.3-1.58-.26-.41-.6-.71-1.03-.91Zm-.33-2.2c.39-.22,.69-.54,.88-.96,.2-.42,.32-.88,.37-1.39,.05-.57-.02-1.03-.22-1.37-.2-.34-.47-.6-.8-.78-.33-.17-.69-.27-1.06-.3-.23-.03-.45-.02-.64,.03-.2,.05-.37,.19-.51,.42-.15,.24-.25,.63-.32,1.18-.16,1.32-.24,1.98-.4,3.29,.46,.05,.7,.08,1.16,.12,.64,.06,1.15-.02,1.54-.24Zm1.03-3.72c-.2-.34-.47-.6-.8-.78-.33-.17-.69-.27-1.06-.3-.23-.03-.45-.02-.64,.03-.2,.05-.37,.19-.51,.42-.15,.24-.25,.63-.32,1.18-.16,1.32-.24,1.98-.4,3.29,.46,.05,.7,.08,1.16,.12,.64,.06,1.15-.02,1.54-.24,.39-.22,.69-.54,.88-.96,.2-.42,.32-.88,.37-1.39,.05-.57-.02-1.03-.22-1.37Zm.33,6.83c-.26-.41-.6-.71-1.03-.91-.44-.2-.89-.32-1.38-.38-.38-.04-.7-.07-.97-.11-.28-.03-.56-.05-.87-.08-.17,1.39-.25,2.08-.42,3.47-.05,.38-.1,.74-.16,1.08-.05,.33-.11,.59-.16,.77,.28,.04,.55,.07,.8,.1s.5,.05,.75,.07c.26,.02,.5,.05,.73,.07,.95,.08,1.7-.15,2.18-.62,.49-.47,.76-1.1,.83-1.88,.05-.65-.05-1.18-.3-1.58Zm0,0c-.26-.41-.6-.71-1.03-.91-.44-.2-.89-.32-1.38-.38-.38-.04-.7-.07-.97-.11-.28-.03-.56-.05-.87-.08-.17,1.39-.25,2.08-.42,3.47-.05,.38-.1,.74-.16,1.08-.05,.33-.11,.59-.16,.77,.28,.04,.55,.07,.8,.1s.5,.05,.75,.07c.26,.02,.5,.05,.73,.07,.95,.08,1.7-.15,2.18-.62,.49-.47,.76-1.1,.83-1.88,.05-.65-.05-1.18-.3-1.58Zm-.33-6.83c-.2-.34-.47-.6-.8-.78-.33-.17-.69-.27-1.06-.3-.23-.03-.45-.02-.64,.03-.2,.05-.37,.19-.51,.42-.15,.24-.25,.63-.32,1.18-.16,1.32-.24,1.98-.4,3.29,.46,.05,.7,.08,1.16,.12,.64,.06,1.15-.02,1.54-.24,.39-.22,.69-.54,.88-.96,.2-.42,.32-.88,.37-1.39,.05-.57-.02-1.03-.22-1.37Z"/><path class="cls-1" d="M185.4,167.03l-3.91,1.54c-1.32,.51-2.61,.91-3.94,1.36-2.65,.87-5.35,1.72-8.12,2.53l-3.35,.96,9.33,4.89c3.17,1.52,6.41,2.91,9.62,4.37l.93-2.22,5.71-13.58c3.2-.06,6.42-.38,9.52-.59l2.32-.19,2.33-.33,4.58-.68,2.88-.45c.96-.18,1.92-.42,2.87-.63-12.64-3.15-24.9-8.15-36.55-14.69l.76,3.28c.72,2.38,1.49,4.79,2.32,7.23,.42,1.21,.82,2.48,1.28,3.65l1.42,3.56Z"/><g><path class="cls-1" d="M197.44,169.13l3.98,1.5c1.33,.47,2.7,.84,4.05,1.26,2.71,.79,5.38,1.76,8.15,2.31l1.88-7.48,.68-2.72c-.97,.21-1.97,.47-2.95,.64l-2.96,.46-6.08,.9c-2.05,.26-4.09,.35-6.18,.52-2.08,.12-4.23,.36-6.33,.36,1.88,.86,3.85,1.48,5.76,2.24Z"/><path class="cls-1" d="M312.64,165.9c-8.59-.39-16.98-1.44-24.98-2.93l.7,2.71,1.93,7.46,8.28-2.31c2.73-.88,5.45-1.84,8.18-2.75,.99-.34,1.99-.65,2.97-1.02l2.93-1.16Z"/></g></g></g></g></svg>