<?xml version="1.0" encoding="UTF-8"?><svg id="Layer_2" xmlns="http://www.w3.org/2000/svg" viewBox="0 0 422.74 135.15"><defs><style>.cls-1{fill:#193263;}</style></defs><g id="Layer_1-2"><g><g><g><path class="cls-1" d="M103.65,32.23v-1.47c1.12-.03,1.89-.29,2.31-.78,.42-.49,.64-1.16,.69-2s.07-1.81,.07-2.91V6.43c0-.8,.01-1.49,.04-2.06,.03-.58,.06-1.06,.09-1.44-.53,.03-1.07,.06-1.6,.09-.53,.03-1.07,.06-1.6,.09V1.15c1.63-.03,3.26-.05,4.91-.07s3.35-.02,5.13-.02c3.43,0,6.12,.61,8.06,1.82,1.94,1.21,2.88,3.14,2.82,5.77,0,.95-.28,1.89-.82,2.84-.55,.95-1.36,1.78-2.44,2.51s-2.44,1.24-4.06,1.53v.09c3.26,0,5.71,.75,7.37,2.24,1.66,1.5,2.49,3.38,2.49,5.66,0,1.81-.46,3.36-1.38,4.66-.92,1.3-2.16,2.3-3.73,3s-3.36,1.04-5.37,1.04h-12.97Zm6.79-1.78c.47,.03,1.04,.05,1.71,.07s1.29,.02,1.87,.02h1.13c2.28,0,4.12-.57,5.53-1.71,1.41-1.14,2.11-2.82,2.11-5.04,0-1.81-.36-3.21-1.07-4.22-.71-1.01-1.64-1.72-2.8-2.13-1.16-.42-2.41-.62-3.78-.62-.89,0-1.7,0-2.42,.02-.73,.01-1.44,.05-2.16,.11v10.04c0,.8,0,1.48-.02,2.04-.01,.56-.05,1.04-.11,1.42Zm.13-15.23l3.24-.09c1.69-.03,3.02-.38,4-1.04s1.68-1.5,2.11-2.51c.43-1.01,.63-2.06,.6-3.15-.03-1.6-.39-2.81-1.09-3.64s-1.55-1.39-2.55-1.69-2-.45-2.97-.45-1.7,.13-2.18,.4c-.47,.27-.78,.71-.93,1.33-.15,.62-.22,1.48-.22,2.58V15.22Z"/><path class="cls-1" d="M139.85,2.61c-.98,0-1.68,.21-2.11,.62-.43,.42-.69,.9-.78,1.44-.09,.55-.13,1.03-.13,1.44v11.19c0,1.66,.11,3.26,.33,4.82,.22,1.55,.64,2.95,1.26,4.2,.62,1.24,1.55,2.24,2.78,2.98s2.83,1.11,4.82,1.11c2.13,0,3.87-.5,5.22-1.51,1.35-1.01,2.34-2.4,2.97-4.17s.97-3.82,1-6.13l.13-12.48c0-.59,.01-1.16,.04-1.71,.03-.55,.06-1.04,.09-1.49-.53,.03-1.06,.06-1.58,.09-.52,.03-1.04,.06-1.58,.09V1.15h8.26v1.46c-1.12,.03-1.9,.28-2.33,.76-.43,.47-.67,1.11-.71,1.91s-.07,1.73-.07,2.8l-.09,10.3c0,1.92-.21,3.76-.62,5.51-.41,1.75-1.09,3.3-2.02,4.66-.93,1.36-2.16,2.44-3.69,3.22-1.53,.78-3.4,1.18-5.62,1.18-2.37,0-4.36-.31-5.97-.93-1.61-.62-2.9-1.58-3.86-2.89-.96-1.3-1.65-2.95-2.06-4.93-.42-1.98-.62-4.35-.62-7.11V8.07c0-.77,.02-1.68,.07-2.73,.04-1.05,.08-1.86,.11-2.42-.53,.03-1.07,.05-1.6,.07-.53,.01-1.07,.04-1.6,.07V1.15h9.95v1.46Z"/><path class="cls-1" d="M181.81,10.56c-.09-1.42-.43-2.77-1.02-4.04-.59-1.27-1.45-2.31-2.58-3.11s-2.56-1.2-4.31-1.2c-1.84,0-3.24,.52-4.22,1.55-.98,1.04-1.47,2.25-1.47,3.64,0,1.24,.35,2.29,1.07,3.13s1.64,1.58,2.78,2.22c1.14,.64,2.35,1.25,3.62,1.84,1.12,.5,2.25,1.05,3.38,1.62,1.12,.58,2.15,1.24,3.06,1.98,.92,.74,1.65,1.62,2.2,2.64,.55,1.02,.82,2.24,.82,3.66,0,1.63-.41,3.08-1.22,4.35-.81,1.27-1.99,2.27-3.53,3-1.54,.72-3.42,1.09-5.64,1.09-1.33,0-2.71-.19-4.13-.58-1.42-.38-2.68-.95-3.78-1.69l.22,1.91h-2.31l-.27-9.46h1.73c.15,2.61,1.05,4.58,2.71,5.93,1.66,1.35,3.66,2.02,5.99,2.02,1.16,0,2.22-.21,3.2-.64,.98-.43,1.75-1.06,2.33-1.89,.58-.83,.86-1.84,.86-3.02,0-1.33-.35-2.44-1.07-3.33-.71-.89-1.63-1.66-2.75-2.31-1.12-.65-2.32-1.27-3.6-1.87-1.12-.5-2.23-1.04-3.33-1.6-1.1-.56-2.1-1.21-3-1.93-.9-.72-1.63-1.59-2.18-2.6-.55-1-.82-2.22-.82-3.64,0-.77,.13-1.6,.4-2.49,.27-.89,.73-1.74,1.4-2.55s1.58-1.48,2.75-2c1.17-.52,2.66-.78,4.46-.78,1.12,0,2.39,.16,3.8,.47,1.41,.31,2.72,.91,3.93,1.8l-.18-1.91h2.27V10.56h-1.6Z"/><path class="cls-1" d="M199.53,2.61c-1.1,.03-1.86,.28-2.29,.76-.43,.47-.67,1.11-.71,1.91s-.07,1.73-.07,2.8V26.95c0,.8,0,1.49-.02,2.06-.01,.58-.05,1.06-.11,1.44,.53-.03,1.07-.06,1.6-.09s1.07-.06,1.6-.09v1.95h-9.99v-1.47c1.12-.06,1.89-.32,2.31-.78,.42-.46,.64-1.1,.69-1.91,.04-.81,.07-1.74,.07-2.78V6.12c0-.59,.01-1.16,.04-1.71,.03-.55,.06-1.04,.09-1.49-.53,.03-1.07,.06-1.6,.09-.53,.03-1.07,.06-1.6,.09V1.15h9.99v1.46Z"/><path class="cls-1" d="M228.71,32.94l-17.72-23.8c-.27-.35-.53-.7-.78-1.04-.25-.34-.51-.69-.78-1.04h-.04l.13,19.01v2.22c0,.74-.03,1.46-.09,2.18,.53-.03,1.07-.06,1.6-.09s1.07-.06,1.6-.09v1.95h-8.13v-1.47c.92,0,1.58-.2,1.98-.6,.4-.4,.66-.87,.78-1.42,.12-.55,.18-1.04,.18-1.49l.04-21.36V2.92c-.47,.03-.96,.06-1.47,.09-.5,.03-1.01,.06-1.51,.09V1.15h5.29l16.65,22.29c.38,.5,.76,1.01,1.13,1.51,.37,.5,.75,1.01,1.13,1.51h.04l.04-20.34c0-.59,.01-1.16,.04-1.71,.03-.55,.06-1.04,.09-1.49-.53,.03-1.07,.06-1.6,.09s-1.07,.06-1.6,.09V1.15h8.17v1.46c-1.1,.03-1.85,.28-2.26,.76-.42,.47-.64,1.11-.67,1.91s-.04,1.73-.04,2.8l-.09,24.87h-2.13Z"/><path class="cls-1" d="M253.71,20.73c0-1.3-.18-2.23-.53-2.8-.35-.56-.92-.9-1.69-1.02s-1.79-.15-3.06-.09l-3.24,.13v10.17c0,.8,0,1.48-.02,2.04-.01,.56-.05,1.04-.11,1.42l8.48-.13c1.3-.03,2.43-.24,3.37-.64,.95-.4,1.69-1.1,2.22-2.11,.53-1.01,.8-2.38,.8-4.13h1.51l-.27,8.66h-22.91v-1.47c1.12-.06,1.89-.32,2.31-.78,.42-.46,.64-1.1,.69-1.91,.04-.81,.07-1.74,.07-2.78V6.12c0-.59,.01-1.16,.04-1.71,.03-.55,.06-1.04,.09-1.49-.53,.03-1.07,.06-1.6,.09-.53,.03-1.07,.06-1.6,.09V1.15h21.36l.22,7.77h-1.47c0-1.75-.27-3.07-.8-3.97s-1.25-1.51-2.15-1.82c-.9-.31-1.92-.45-3.04-.42l-3.82,.09c-1.1,.03-1.88,.24-2.35,.62-.47,.39-.76,.95-.86,1.71-.11,.76-.16,1.74-.16,2.95v7.11l8.35,.04-.31-3.82h1.95v9.33h-1.46Z"/><path class="cls-1" d="M283.33,10.56c-.09-1.42-.43-2.77-1.02-4.04-.59-1.27-1.45-2.31-2.58-3.11s-2.56-1.2-4.31-1.2c-1.84,0-3.24,.52-4.22,1.55-.98,1.04-1.47,2.25-1.47,3.64,0,1.24,.35,2.29,1.07,3.13s1.64,1.58,2.78,2.22c1.14,.64,2.35,1.25,3.62,1.84,1.12,.5,2.25,1.05,3.38,1.62,1.12,.58,2.15,1.24,3.06,1.98,.92,.74,1.65,1.62,2.2,2.64,.55,1.02,.82,2.24,.82,3.66,0,1.63-.41,3.08-1.22,4.35-.81,1.27-1.99,2.27-3.53,3-1.54,.72-3.42,1.09-5.64,1.09-1.33,0-2.71-.19-4.13-.58-1.42-.38-2.68-.95-3.78-1.69l.22,1.91h-2.31l-.27-9.46h1.73c.15,2.61,1.05,4.58,2.71,5.93,1.66,1.35,3.66,2.02,5.99,2.02,1.16,0,2.22-.21,3.2-.64,.98-.43,1.75-1.06,2.33-1.89,.58-.83,.86-1.84,.86-3.02,0-1.33-.35-2.44-1.07-3.33-.71-.89-1.63-1.66-2.75-2.31-1.12-.65-2.32-1.27-3.6-1.87-1.12-.5-2.23-1.04-3.33-1.6-1.1-.56-2.1-1.21-3-1.93-.9-.72-1.63-1.59-2.18-2.6-.55-1-.82-2.22-.82-3.64,0-.77,.13-1.6,.4-2.49,.27-.89,.73-1.74,1.4-2.55,.67-.81,1.58-1.48,2.75-2,1.17-.52,2.66-.78,4.46-.78,1.12,0,2.39,.16,3.8,.47,1.41,.31,2.72,.91,3.93,1.8l-.18-1.91h2.27V10.56h-1.6Z"/><path class="cls-1" d="M308.51,10.56c-.09-1.42-.43-2.77-1.02-4.04-.59-1.27-1.45-2.31-2.58-3.11s-2.56-1.2-4.31-1.2c-1.84,0-3.24,.52-4.22,1.55-.98,1.04-1.47,2.25-1.47,3.64,0,1.24,.35,2.29,1.07,3.13s1.64,1.58,2.78,2.22c1.14,.64,2.35,1.25,3.62,1.84,1.12,.5,2.25,1.05,3.38,1.62,1.12,.58,2.15,1.24,3.06,1.98,.92,.74,1.65,1.62,2.2,2.64,.55,1.02,.82,2.24,.82,3.66,0,1.63-.41,3.08-1.22,4.35-.81,1.27-1.99,2.27-3.53,3-1.54,.72-3.42,1.09-5.64,1.09-1.33,0-2.71-.19-4.13-.58-1.42-.38-2.68-.95-3.78-1.69l.22,1.91h-2.31l-.27-9.46h1.73c.15,2.61,1.05,4.58,2.71,5.93,1.66,1.35,3.66,2.02,5.99,2.02,1.16,0,2.22-.21,3.2-.64,.98-.43,1.75-1.06,2.33-1.89,.58-.83,.86-1.84,.86-3.02,0-1.33-.35-2.44-1.07-3.33-.71-.89-1.63-1.66-2.75-2.31-1.12-.65-2.32-1.27-3.6-1.87-1.12-.5-2.23-1.04-3.33-1.6-1.1-.56-2.1-1.21-3-1.93-.9-.72-1.63-1.59-2.18-2.6-.55-1-.82-2.22-.82-3.64,0-.77,.13-1.6,.4-2.49,.27-.89,.73-1.74,1.4-2.55,.67-.81,1.58-1.48,2.75-2,1.17-.52,2.66-.78,4.46-.78,1.12,0,2.39,.16,3.8,.47,1.41,.31,2.72,.91,3.93,1.8l-.18-1.91h2.27V10.56h-1.6Z"/></g><g><path class="cls-1" d="M120.88,75.8c-1.3-2.96-2.62-5.91-3.95-8.86-1.33-2.95-2.64-5.93-3.91-8.95-.42-.95-.82-1.9-1.22-2.86-.4-.96-.78-1.93-1.15-2.91-.37-.98-.75-1.95-1.13-2.93,0,.33,0,.65-.02,.98-.02,.33-.02,.65-.02,.98-.03,1.07-.07,2.35-.11,3.84-.04,1.49-.1,3.09-.16,4.8s-.1,3.41-.13,5.11-.06,3.31-.09,4.82c-.03,.65-.05,1.3-.07,1.95-.01,.65-.05,1.26-.11,1.82,.56-.03,1.12-.06,1.67-.09,.55-.03,1.1-.06,1.67-.09v1.95h-8.48v-1.47c.92-.03,1.59-.23,2.02-.6,.43-.37,.7-.87,.82-1.49s.19-1.29,.22-2l.84-20.25c.03-.59,.05-1.18,.07-1.78,.01-.59,.04-1.17,.07-1.73-.53,.03-1.07,.05-1.6,.07-.53,.01-1.07,.04-1.6,.07v-1.91h6.8l7.64,17.63c.38,.89,.76,1.78,1.13,2.66,.37,.89,.76,1.78,1.16,2.66,.4,.89,.79,1.79,1.18,2.71h.09c.33-.8,.71-1.75,1.15-2.86,.45-1.11,.81-2.06,1.11-2.86,1.3-3.26,2.66-6.52,4.06-9.79,1.41-3.27,2.79-6.65,4.15-10.15h6.57v1.46c-.74-.03-1.35,.11-1.82,.42-.47,.31-.81,.82-1.02,1.53-.21,.71-.28,1.67-.22,2.89l1.16,20.21c.06,.5,.09,.99,.09,1.47v1.29c.53-.03,1.07-.05,1.62-.07,.55-.01,1.09-.04,1.62-.07v1.95h-9.95v-1.47c.92-.03,1.6-.25,2.04-.66,.44-.42,.72-1.01,.82-1.78,.1-.77,.13-1.72,.07-2.84l-.89-14.66c-.03-.47-.06-.95-.09-1.42-.03-.47-.06-.95-.09-1.42-.03-.47-.06-.95-.09-1.42-.09,.21-.18,.43-.29,.66-.1,.24-.2,.49-.29,.76l-9.99,24.69h-1.33Z"/><path class="cls-1" d="M142.2,75.36v-1.47c.89,0,1.57-.24,2.04-.71,.47-.47,.87-1.13,1.18-1.96,.31-.83,.67-1.79,1.09-2.89l9.15-24.91h1.07l9.9,25.27c.24,.62,.5,1.42,.8,2.4,.3,.98,.41,1.81,.35,2.49,.5-.03,1.01-.06,1.51-.09,.5-.03,1.01-.06,1.51-.09v1.95h-10.17v-1.47c1.12-.03,1.87-.28,2.22-.75,.35-.47,.49-1.04,.4-1.69s-.24-1.24-.44-1.78l-1.55-4.18-11.55,.27-1.55,4.75c-.21,.71-.39,1.27-.55,1.69-.16,.41-.35,.87-.56,1.38,.59-.03,1.18-.06,1.75-.09s1.15-.06,1.71-.09v1.95h-8.3Zm8.17-11.5h10.26l-3.15-8.48c-.33-.92-.66-1.83-1-2.73-.34-.9-.67-1.81-1-2.73h-.09c-.3,.83-.6,1.66-.91,2.49-.31,.83-.63,1.67-.95,2.53l-3.15,8.93Z"/><path class="cls-1" d="M197,76.07l-17.72-23.8c-.27-.35-.53-.7-.78-1.04-.25-.34-.51-.69-.78-1.04h-.04l.13,19.01v2.22c0,.74-.03,1.46-.09,2.18,.53-.03,1.07-.06,1.6-.09s1.07-.06,1.6-.09v1.95h-8.13v-1.47c.92,0,1.58-.2,1.98-.6,.4-.4,.66-.87,.78-1.42,.12-.55,.18-1.04,.18-1.49l.04-21.36v-2.97c-.47,.03-.96,.06-1.47,.09-.5,.03-1.01,.06-1.51,.09v-1.95h5.29l16.65,22.29c.38,.5,.76,1.01,1.13,1.51,.37,.5,.75,1.01,1.13,1.51h.04l.04-20.34c0-.59,.01-1.16,.04-1.71,.03-.55,.06-1.04,.09-1.49-.53,.03-1.07,.06-1.6,.09s-1.07,.06-1.6,.09v-1.95h8.17v1.46c-1.1,.03-1.85,.28-2.26,.76-.42,.47-.64,1.11-.67,1.91s-.04,1.73-.04,2.8l-.09,24.87h-2.13Z"/><path class="cls-1" d="M203.84,75.36v-1.47c.89,0,1.57-.24,2.04-.71,.47-.47,.87-1.13,1.18-1.96,.31-.83,.67-1.79,1.09-2.89l9.15-24.91h1.07l9.9,25.27c.24,.62,.5,1.42,.8,2.4,.3,.98,.41,1.81,.35,2.49,.5-.03,1.01-.06,1.51-.09,.5-.03,1.01-.06,1.51-.09v1.95h-10.17v-1.47c1.12-.03,1.87-.28,2.22-.75,.35-.47,.49-1.04,.4-1.69s-.24-1.24-.44-1.78l-1.55-4.18-11.55,.27-1.55,4.75c-.21,.71-.39,1.27-.55,1.69-.16,.41-.35,.87-.56,1.38,.59-.03,1.18-.06,1.75-.09s1.15-.06,1.71-.09v1.95h-8.3Zm8.17-11.5h10.26l-3.15-8.48c-.33-.92-.66-1.83-1-2.73-.34-.9-.67-1.81-1-2.73h-.09c-.3,.83-.6,1.66-.91,2.49-.31,.83-.63,1.67-.95,2.53l-3.15,8.93Z"/><path class="cls-1" d="M248.87,76.07c-2.96,0-5.58-.62-7.86-1.87-2.28-1.24-4.06-3.04-5.33-5.37-1.27-2.34-1.91-5.12-1.91-8.35,0-2.1,.32-4.15,.95-6.15,.64-2,1.6-3.81,2.89-5.44,1.29-1.63,2.9-2.92,4.84-3.89,1.94-.96,4.2-1.44,6.77-1.44,1.07,0,2.15,.1,3.24,.29,1.1,.19,2.15,.47,3.18,.84,1.02,.37,1.95,.81,2.78,1.31l-.18-2.13h2.44v10.17h-1.6c-.12-1.87-.61-3.44-1.49-4.73-.87-1.29-2.01-2.27-3.4-2.95-1.39-.68-2.95-1.02-4.66-1.02-1.57,0-3.04,.35-4.42,1.04-1.38,.7-2.59,1.67-3.64,2.93-1.05,1.26-1.87,2.75-2.47,4.46s-.89,3.61-.89,5.68c0,2.78,.5,5.27,1.51,7.46,1.01,2.19,2.4,3.91,4.2,5.15,1.79,1.24,3.86,1.87,6.2,1.87,.8,0,1.64-.07,2.51-.22,.87-.15,1.75-.39,2.62-.73,.87-.34,1.7-.76,2.47-1.26v-9.73c-.5,.03-1.02,.06-1.55,.09-.53,.03-1.05,.06-1.55,.09v-1.95h10.04v1.47c-.83,0-1.46,.21-1.91,.64-.44,.43-.76,.95-.93,1.55-.18,.61-.28,1.2-.31,1.78-.03,.58-.04,1.02-.04,1.31v6.79h-1.2c-.47,0-1.12,.09-1.95,.27-.83,.18-1.78,.47-2.84,.89-.92,.35-1.98,.64-3.2,.84-1.22,.21-2.31,.31-3.29,.31Z"/><path class="cls-1" d="M283.38,63.85c0-1.3-.18-2.23-.53-2.8-.35-.56-.92-.9-1.69-1.02s-1.79-.15-3.06-.09l-3.24,.13v10.17c0,.8,0,1.48-.02,2.04-.01,.56-.05,1.04-.11,1.42l8.48-.13c1.3-.03,2.43-.24,3.37-.64,.95-.4,1.69-1.1,2.22-2.11,.53-1.01,.8-2.38,.8-4.13h1.51l-.27,8.66h-22.91v-1.47c1.12-.06,1.89-.32,2.31-.78,.42-.46,.64-1.1,.69-1.91,.04-.81,.07-1.74,.07-2.78v-19.18c0-.59,.01-1.16,.04-1.71,.03-.55,.06-1.04,.09-1.49-.53,.03-1.07,.06-1.6,.09-.53,.03-1.07,.06-1.6,.09v-1.95h21.36l.22,7.77h-1.47c0-1.75-.27-3.07-.8-3.97s-1.25-1.51-2.15-1.82c-.9-.31-1.92-.45-3.04-.42l-3.82,.09c-1.1,.03-1.88,.24-2.35,.62-.47,.39-.76,.95-.86,1.71-.11,.76-.16,1.74-.16,2.95v7.11l8.35,.04-.31-3.82h1.95v9.33h-1.46Z"/><path class="cls-1" d="M312.29,75.8c-1.3-2.96-2.62-5.91-3.95-8.86-1.33-2.95-2.64-5.93-3.91-8.95-.42-.95-.82-1.9-1.22-2.86-.4-.96-.78-1.93-1.15-2.91-.37-.98-.75-1.95-1.13-2.93,0,.33,0,.65-.02,.98-.02,.33-.02,.65-.02,.98-.03,1.07-.07,2.35-.11,3.84-.04,1.49-.1,3.09-.16,4.8-.06,1.7-.1,3.41-.13,5.11-.03,1.7-.06,3.31-.09,4.82-.03,.65-.05,1.3-.07,1.95-.01,.65-.05,1.26-.11,1.82,.56-.03,1.12-.06,1.67-.09,.55-.03,1.1-.06,1.67-.09v1.95h-8.48v-1.47c.92-.03,1.59-.23,2.02-.6,.43-.37,.7-.87,.82-1.49s.19-1.29,.22-2l.84-20.25c.03-.59,.05-1.18,.07-1.78,.01-.59,.04-1.17,.07-1.73-.53,.03-1.07,.05-1.6,.07-.53,.01-1.07,.04-1.6,.07v-1.91h6.8l7.64,17.63c.38,.89,.76,1.78,1.13,2.66,.37,.89,.76,1.78,1.16,2.66,.4,.89,.79,1.79,1.18,2.71h.09c.33-.8,.71-1.75,1.15-2.86,.45-1.11,.81-2.06,1.11-2.86,1.3-3.26,2.66-6.52,4.06-9.79,1.41-3.27,2.79-6.65,4.15-10.15h6.57v1.46c-.74-.03-1.35,.11-1.82,.42-.47,.31-.81,.82-1.02,1.53-.21,.71-.28,1.67-.22,2.89l1.16,20.21c.06,.5,.09,.99,.09,1.47v1.29c.53-.03,1.07-.05,1.62-.07,.55-.01,1.09-.04,1.62-.07v1.95h-9.95v-1.47c.92-.03,1.6-.25,2.04-.66,.44-.42,.72-1.01,.82-1.78,.1-.77,.13-1.72,.07-2.84l-.89-14.66c-.03-.47-.06-.95-.09-1.42-.03-.47-.06-.95-.09-1.42-.03-.47-.06-.95-.09-1.42-.09,.21-.18,.43-.29,.66-.1,.24-.2,.49-.29,.76l-9.99,24.69h-1.33Z"/><path class="cls-1" d="M351.77,63.85c0-1.3-.18-2.23-.53-2.8-.35-.56-.92-.9-1.69-1.02s-1.79-.15-3.06-.09l-3.24,.13v10.17c0,.8,0,1.48-.02,2.04-.01,.56-.05,1.04-.11,1.42l8.48-.13c1.3-.03,2.43-.24,3.37-.64,.95-.4,1.69-1.1,2.22-2.11,.53-1.01,.8-2.38,.8-4.13h1.51l-.27,8.66h-22.91v-1.47c1.12-.06,1.89-.32,2.31-.78,.42-.46,.64-1.1,.69-1.91,.04-.81,.07-1.74,.07-2.78v-19.18c0-.59,.01-1.16,.04-1.71,.03-.55,.06-1.04,.09-1.49-.53,.03-1.07,.06-1.6,.09-.53,.03-1.07,.06-1.6,.09v-1.95h21.36l.22,7.77h-1.47c0-1.75-.27-3.07-.8-3.97-.53-.9-1.25-1.51-2.15-1.82-.9-.31-1.92-.45-3.04-.42l-3.82,.09c-1.1,.03-1.88,.24-2.35,.62-.47,.39-.76,.95-.86,1.71-.11,.76-.16,1.74-.16,2.95v7.11l8.35,.04-.31-3.82h1.95v9.33h-1.46Z"/><path class="cls-1" d="M388.23,76.07l-17.72-23.8c-.27-.35-.53-.7-.78-1.04-.25-.34-.51-.69-.78-1.04h-.04l.13,19.01v2.22c0,.74-.03,1.46-.09,2.18,.53-.03,1.07-.06,1.6-.09s1.07-.06,1.6-.09v1.95h-8.13v-1.47c.92,0,1.58-.2,1.98-.6,.4-.4,.66-.87,.78-1.42,.12-.55,.18-1.04,.18-1.49l.04-21.36v-2.97c-.47,.03-.96,.06-1.47,.09-.5,.03-1.01,.06-1.51,.09v-1.95h5.29l16.65,22.29c.38,.5,.76,1.01,1.13,1.51,.37,.5,.75,1.01,1.13,1.51h.04l.04-20.34c0-.59,.01-1.16,.04-1.71,.03-.55,.06-1.04,.09-1.49-.53,.03-1.07,.06-1.6,.09s-1.07,.06-1.6,.09v-1.95h8.17v1.46c-1.1,.03-1.85,.28-2.26,.76-.42,.47-.64,1.11-.67,1.91-.03,.8-.04,1.73-.04,2.8l-.09,24.87h-2.13Z"/><path class="cls-1" d="M421.05,53.64c-.03-1.75-.21-3.2-.53-4.35-.33-1.15-.9-2.02-1.71-2.6-.81-.58-1.99-.85-3.53-.82h-3.77l-.04,24.2c0,.8,0,1.49-.02,2.06-.01,.58-.05,1.06-.11,1.44,.62-.03,1.24-.06,1.84-.09,.61-.03,1.22-.06,1.84-.09v1.95h-10.44v-1.47c1.12-.06,1.89-.33,2.29-.8,.4-.47,.62-1.12,.66-1.93,.05-.81,.07-1.72,.07-2.73l.04-22.52-4.57,.04c-1.87,0-3.18,.62-3.95,1.87-.77,1.24-1.15,3.18-1.15,5.82h-1.64l.27-9.37h25.89l.27,9.37h-1.69Z"/></g><g><path class="cls-1" d="M113.64,88.73c-1.1,.03-1.86,.28-2.29,.76-.43,.47-.67,1.11-.71,1.91s-.07,1.73-.07,2.8v18.87c0,.8,0,1.49-.02,2.06-.01,.58-.05,1.06-.11,1.44,.53-.03,1.07-.06,1.6-.09s1.07-.06,1.6-.09v1.95h-9.99v-1.47c1.12-.06,1.89-.32,2.31-.78,.42-.46,.64-1.1,.69-1.91,.04-.81,.07-1.74,.07-2.78v-19.18c0-.59,.01-1.16,.04-1.71,.03-.55,.06-1.04,.09-1.49-.53,.03-1.07,.06-1.6,.09-.53,.03-1.07,.06-1.6,.09v-1.95h9.99v1.46Z"/><path class="cls-1" d="M142.82,119.06l-17.72-23.8c-.27-.35-.53-.7-.78-1.04-.25-.34-.51-.69-.78-1.04h-.04l.13,19.01v2.22c0,.74-.03,1.46-.09,2.18,.53-.03,1.07-.06,1.6-.09s1.07-.06,1.6-.09v1.95h-8.13v-1.47c.92,0,1.58-.2,1.98-.6,.4-.4,.66-.87,.78-1.42,.12-.55,.18-1.04,.18-1.49l.04-21.36v-2.97c-.47,.03-.96,.06-1.47,.09-.5,.03-1.01,.06-1.51,.09v-1.95h5.29l16.65,22.29c.38,.5,.76,1.01,1.13,1.51,.37,.5,.75,1.01,1.13,1.51h.04l.04-20.34c0-.59,.01-1.16,.04-1.71,.03-.55,.06-1.04,.09-1.49-.53,.03-1.07,.06-1.6,.09s-1.07,.06-1.6,.09v-1.95h8.17v1.46c-1.1,.03-1.85,.28-2.26,.76-.42,.47-.64,1.11-.67,1.91s-.04,1.73-.04,2.8l-.09,24.87h-2.13Z"/><path class="cls-1" d="M169.82,96.68c-.09-1.42-.43-2.77-1.02-4.04-.59-1.27-1.45-2.31-2.58-3.11s-2.56-1.2-4.31-1.2c-1.84,0-3.24,.52-4.22,1.55-.98,1.04-1.47,2.25-1.47,3.64,0,1.24,.35,2.29,1.07,3.13s1.64,1.58,2.78,2.22c1.14,.64,2.35,1.25,3.62,1.84,1.12,.5,2.25,1.05,3.38,1.62,1.12,.58,2.15,1.24,3.06,1.98,.92,.74,1.65,1.62,2.2,2.64,.55,1.02,.82,2.24,.82,3.66,0,1.63-.41,3.08-1.22,4.35-.81,1.27-1.99,2.27-3.53,3-1.54,.72-3.42,1.09-5.64,1.09-1.33,0-2.71-.19-4.13-.58-1.42-.38-2.68-.95-3.78-1.69l.22,1.91h-2.31l-.27-9.46h1.73c.15,2.61,1.05,4.58,2.71,5.93,1.66,1.35,3.66,2.02,5.99,2.02,1.16,0,2.22-.21,3.2-.64,.98-.43,1.75-1.06,2.33-1.89,.58-.83,.86-1.84,.86-3.02,0-1.33-.35-2.44-1.07-3.33-.71-.89-1.63-1.66-2.75-2.31-1.12-.65-2.32-1.27-3.6-1.87-1.12-.5-2.23-1.04-3.33-1.6-1.1-.56-2.1-1.21-3-1.93-.9-.72-1.63-1.59-2.18-2.6-.55-1-.82-2.22-.82-3.64,0-.77,.13-1.6,.4-2.49,.27-.89,.73-1.74,1.4-2.55s1.58-1.48,2.75-2c1.17-.52,2.66-.78,4.46-.78,1.12,0,2.39,.16,3.8,.47,1.41,.31,2.72,.91,3.93,1.8l-.18-1.91h2.27v9.77h-1.6Z"/><path class="cls-1" d="M200.82,96.63c-.03-1.75-.21-3.2-.53-4.35-.33-1.15-.9-2.02-1.71-2.6-.81-.58-1.99-.85-3.53-.82h-3.77l-.04,24.2c0,.8,0,1.49-.02,2.06-.01,.58-.05,1.06-.11,1.44,.62-.03,1.24-.06,1.84-.09,.61-.03,1.22-.06,1.84-.09v1.95h-10.44v-1.47c1.12-.06,1.89-.33,2.29-.8,.4-.47,.62-1.12,.66-1.93,.05-.81,.07-1.72,.07-2.73l.04-22.52-4.57,.04c-1.87,0-3.18,.62-3.95,1.87-.77,1.24-1.15,3.18-1.15,5.82h-1.64l.27-9.37h25.89l.27,9.37h-1.69Z"/><path class="cls-1" d="M215.96,88.73c-1.1,.03-1.86,.28-2.29,.76-.43,.47-.67,1.11-.71,1.91s-.07,1.73-.07,2.8v18.87c0,.8,0,1.49-.02,2.06-.01,.58-.05,1.06-.11,1.44,.53-.03,1.07-.06,1.6-.09s1.07-.06,1.6-.09v1.95h-9.99v-1.47c1.12-.06,1.89-.32,2.31-.78,.42-.46,.64-1.1,.69-1.91,.04-.81,.07-1.74,.07-2.78v-19.18c0-.59,.01-1.16,.04-1.71,.03-.55,.06-1.04,.09-1.49-.53,.03-1.07,.06-1.6,.09-.53,.03-1.07,.06-1.6,.09v-1.95h9.99v1.46Z"/><path class="cls-1" d="M244.12,96.63c-.03-1.75-.21-3.2-.53-4.35-.33-1.15-.9-2.02-1.71-2.6-.81-.58-1.99-.85-3.53-.82h-3.77l-.04,24.2c0,.8,0,1.49-.02,2.06-.01,.58-.05,1.06-.11,1.44,.62-.03,1.24-.06,1.84-.09,.61-.03,1.22-.06,1.84-.09v1.95h-10.44v-1.47c1.12-.06,1.89-.33,2.29-.8,.4-.47,.62-1.12,.66-1.93,.05-.81,.07-1.72,.07-2.73l.04-22.52-4.57,.04c-1.87,0-3.18,.62-3.95,1.87-.77,1.24-1.15,3.18-1.15,5.82h-1.64l.27-9.37h25.89l.27,9.37h-1.69Z"/><path class="cls-1" d="M258.15,88.73c-.98,0-1.68,.21-2.11,.62-.43,.42-.69,.9-.78,1.44-.09,.55-.13,1.03-.13,1.44v11.19c0,1.66,.11,3.26,.33,4.82,.22,1.55,.64,2.95,1.26,4.2,.62,1.24,1.55,2.24,2.78,2.98s2.83,1.11,4.82,1.11c2.13,0,3.87-.5,5.22-1.51,1.35-1.01,2.34-2.4,2.97-4.17s.97-3.82,1-6.13l.13-12.48c0-.59,.01-1.16,.04-1.71,.03-.55,.06-1.04,.09-1.49-.53,.03-1.06,.06-1.58,.09-.52,.03-1.04,.06-1.58,.09v-1.95h8.26v1.46c-1.12,.03-1.9,.28-2.33,.76-.43,.47-.67,1.11-.71,1.91-.04,.8-.07,1.73-.07,2.8l-.09,10.3c0,1.92-.21,3.76-.62,5.51-.41,1.75-1.09,3.3-2.02,4.66-.93,1.36-2.16,2.44-3.69,3.22-1.53,.78-3.4,1.18-5.62,1.18-2.37,0-4.36-.31-5.97-.93-1.61-.62-2.9-1.58-3.86-2.89-.96-1.3-1.65-2.95-2.06-4.93-.42-1.98-.62-4.35-.62-7.11v-9.02c0-.77,.02-1.68,.07-2.73,.04-1.05,.08-1.86,.11-2.42-.53,.03-1.07,.05-1.6,.07-.53,.01-1.07,.04-1.6,.07v-1.91h9.95v1.46Z"/><path class="cls-1" d="M305.94,96.63c-.03-1.75-.21-3.2-.53-4.35-.33-1.15-.9-2.02-1.71-2.6-.81-.58-1.99-.85-3.53-.82h-3.77l-.04,24.2c0,.8,0,1.49-.02,2.06-.01,.58-.05,1.06-.11,1.44,.62-.03,1.24-.06,1.84-.09,.61-.03,1.22-.06,1.84-.09v1.95h-10.44v-1.47c1.12-.06,1.89-.33,2.29-.8,.4-.47,.62-1.12,.66-1.93,.05-.81,.07-1.72,.07-2.73l.04-22.52-4.57,.04c-1.87,0-3.18,.62-3.95,1.87-.77,1.24-1.15,3.18-1.15,5.82h-1.64l.27-9.37h25.89l.27,9.37h-1.69Z"/><path class="cls-1" d="M326.54,106.84c0-1.3-.18-2.23-.53-2.8-.35-.56-.92-.9-1.69-1.02s-1.79-.15-3.06-.09l-3.24,.13v10.17c0,.8,0,1.48-.02,2.04-.01,.56-.05,1.04-.11,1.42l8.48-.13c1.3-.03,2.43-.24,3.37-.64,.95-.4,1.69-1.1,2.22-2.11,.53-1.01,.8-2.38,.8-4.13h1.51l-.27,8.66h-22.91v-1.47c1.12-.06,1.89-.32,2.31-.78,.42-.46,.64-1.1,.69-1.91,.04-.81,.07-1.74,.07-2.78v-19.18c0-.59,.01-1.16,.04-1.71,.03-.55,.06-1.04,.09-1.49-.53,.03-1.07,.06-1.6,.09-.53,.03-1.07,.06-1.6,.09v-1.95h21.36l.22,7.77h-1.47c0-1.75-.27-3.07-.8-3.97s-1.25-1.51-2.15-1.82c-.9-.31-1.92-.45-3.04-.42l-3.82,.09c-1.1,.03-1.88,.24-2.35,.62-.47,.39-.76,.95-.86,1.71-.11,.76-.16,1.74-.16,2.95v7.11l8.35,.04-.31-3.82h1.95v9.33h-1.46Z"/></g></g><g><path class="cls-1" d="M39.06,59.75L0,32.42V12.56c2.41,0,4.8,0,7.21,.03l31.43,44.92h0c0,.79,.15,1.52,.41,2.21t0,.02Z"/><path class="cls-1" d="M39.53,54.25c-.39,.65-.66,1.37-.79,2.13L18.47,12.95c1.25,.08,2.49,.16,3.74,.27,4.69,.39,9.32,1.03,13.92,2.03l3.4,38.99Z"/><path class="cls-1" d="M41,62.44L0,58.86v-16.56l39.55,18.46c.38,.64,.88,1.21,1.45,1.68Z"/><path class="cls-1" d="M59.58,14.19l-17.6,37.71h0c-.67,.37-1.27,.85-1.77,1.43l3.15-36.13c.18,.05,.35,.11,.53,.17,.36,.12,.74,.19,1.12,.19s.76-.06,1.12-.19c4.43-1.45,8.92-2.47,13.46-3.18Z"/><path class="cls-1" d="M89.99,12.56v7.27l-44.74,31.31h0c-.08,0-.16,0-.25,0-.7,0-1.35,.12-1.97,.32L69.89,13.07c6.65-.47,13.37-.5,20.11-.5Z"/><path class="cls-1" d="M89.99,30.94v17.58l-41.55,3.62h0c-.62-.39-1.32-.7-2.06-.86l43.62-20.35Z"/><path class="cls-1" d="M49.32,52.82c1.25,1.16,2.04,2.83,2.04,4.68,0,2.48-1.41,4.62-3.48,5.66-.46-1.32-.8-2.59-.99-3.8,.48-.48,.78-1.14,.78-1.86,0-1.47-1.2-2.67-2.67-2.67s-2.66,1.2-2.66,2.67c0,.71,.28,1.36,.74,1.84-.15,1.01-.43,2.1-.8,3.2-.04,.16-.1,.32-.16,.49l-.2,.02L0,66.71v23.45c0,6.21,2.82,12.13,7.03,17.51,4.22,5.38,9.84,10.23,15.46,14.3,5.63,4.08,11.26,7.37,15.47,9.65,4.22,2.27,7.03,3.54,7.03,3.54,0,0,2.81-1.26,7.02-3.54,4.22-2.27,9.85-5.57,15.47-9.65,5.62-4.06,11.26-8.92,15.46-14.3,4.22-5.38,7.03-11.3,7.03-17.51V56.37l-40.68-3.55Zm-4.12,64.52s0,0-.02,0c0,0-.02,0-.02,0-6.86-1.39-6.37-3.81-6.37-3.81h12.79s.5,2.41-6.37,3.81Zm9.17-5.07h-18.88v-7.56h18.88v7.56Zm-2.32-8.46h-14.12s1.85-16.29-7.92-22.28c7.92-6.95,13.79-16.97,14-24.04v28.26c-.85,.39-1.44,1.24-1.44,2.24,0,1.35,1.08,2.46,2.44,2.46s2.44-1.11,2.44-2.46c0-1-.59-1.85-1.47-2.24v-28.26c.21,7.07,6.07,17.08,14.03,24.04-9.81,5.99-7.96,22.28-7.96,22.28Z"/><path class="cls-1" d="M41.92,63.05c.05,.04,.11,.07,.17,.09,0-.03,.02-.07,.03-.11l-.2,.02Z"/><path class="cls-1" d="M90,0V8.37c-5.7,0-11.4,.02-17.05,.32-3.78,.18-7.54,.5-11.27,1.01h0c-5.25,.72-10.44,1.81-15.55,3.48-.36,.12-.75,.18-1.12,.18s-.76-.07-1.12-.18c-.06-.02-.11-.04-.17-.05-2.62-.86-5.28-1.56-7.94-2.13-4.46-.97-8.99-1.58-13.55-1.97-1.91-.16-3.84-.28-5.76-.37-1.67-.09-3.35-.15-5.03-.18-3.8-.1-7.61-.1-11.43-.1V0C7.45,0,14.89,.04,22.22,.66c4.3,.36,8.57,.92,12.8,1.8,2.98,.61,5.93,1.38,8.86,2.34,.18,.06,.35,.1,.54,.13,.19,.03,.39,.04,.58,.04,.38,0,.76-.06,1.12-.18,7.08-2.33,14.32-3.52,21.66-4.15,7.33-.62,14.77-.66,22.21-.66Z"/></g></g></g></svg>