<?xml version="1.0" encoding="utf-8"?>
<!-- Generator: Adobe Illustrator 27.1.1, SVG Export Plug-In . SVG Version: 6.00 Build 0)  -->
<svg version="1.1" id="Layer_2_00000065033804876411310450000003331290447520770486_"
	 xmlns="http://www.w3.org/2000/svg" xmlns:xlink="http://www.w3.org/1999/xlink" x="0px" y="0px" viewBox="0 0 90 135.1"
	 style="enable-background:new 0 0 90 135.1;" xml:space="preserve">
<style type="text/css">
	.st0{fill:#FFFFFF;}
</style>
<g id="Layer_1-2">
	<g>
		<path class="st0" d="M39.1,59.8L0,32.4V12.6c2.4,0,4.8,0,7.2,0l31.4,44.9l0,0C38.6,58.3,38.8,59,39.1,59.8
			C39.2,60.2,39.2,60.2,39.1,59.8L39.1,59.8z"/>
		<path class="st0" d="M39.5,54.2c-0.4,0.7-0.7,1.4-0.8,2.1L18.5,12.9c1.2,0.1,2.5,0.2,3.7,0.3c4.7,0.4,9.3,1,13.9,2L39.5,54.2
			L39.5,54.2z"/>
		<path class="st0" d="M41,62.4L0,58.9V42.3l39.5,18.5C39.9,61.4,40.4,62,41,62.4z"/>
		<path class="st0" d="M59.6,14.2L42,51.9l0,0c-0.7,0.4-1.3,0.8-1.8,1.4l3.2-36.1c0.2,0,0.3,0.1,0.5,0.2c0.4,0.1,0.7,0.2,1.1,0.2
			s0.8-0.1,1.1-0.2C50.6,15.9,55.1,14.9,59.6,14.2L59.6,14.2z"/>
		<path class="st0" d="M90,12.6v7.3L45.2,51.1l0,0c-0.1,0-0.2,0-0.2,0c-0.7,0-1.3,0.1-2,0.3l26.9-38.4C76.5,12.6,83.3,12.6,90,12.6
			L90,12.6z"/>
		<path class="st0" d="M90,30.9v17.6l-41.5,3.6l0,0c-0.6-0.4-1.3-0.7-2.1-0.9L90,30.9L90,30.9z"/>
		<path class="st0" d="M49.3,52.8c1.2,1.2,2,2.8,2,4.7c0,2.5-1.4,4.6-3.5,5.7c-0.5-1.3-0.8-2.6-1-3.8c0.5-0.5,0.8-1.1,0.8-1.9
			c0-1.5-1.2-2.7-2.7-2.7s-2.7,1.2-2.7,2.7c0,0.7,0.3,1.4,0.7,1.8c-0.2,1-0.4,2.1-0.8,3.2c0,0.2-0.1,0.3-0.2,0.5l-0.2,0L0,66.7v23.5
			c0,6.2,2.8,12.1,7,17.5c4.2,5.4,9.8,10.2,15.5,14.3c5.6,4.1,11.3,7.4,15.5,9.7c4.2,2.3,7,3.5,7,3.5s2.8-1.3,7-3.5
			c4.2-2.3,9.9-5.6,15.5-9.7c5.6-4.1,11.3-8.9,15.5-14.3c4.2-5.4,7-11.3,7-17.5V56.4L49.3,52.8L49.3,52.8z M45.2,117.3
			C45.2,117.3,45.2,117.3,45.2,117.3L45.2,117.3c-6.9-1.4-6.4-3.8-6.4-3.8h12.8C51.6,113.5,52.1,115.9,45.2,117.3L45.2,117.3z
			 M54.4,112.3H35.5v-7.6h18.9V112.3z M52.1,103.8H37.9c0,0,1.8-16.3-7.9-22.3c7.9-6.9,13.8-17,14-24v28.3c-0.8,0.4-1.4,1.2-1.4,2.2
			c0,1.3,1.1,2.5,2.4,2.5s2.4-1.1,2.4-2.5c0-1-0.6-1.8-1.5-2.2V57.5c0.2,7.1,6.1,17.1,14,24C50.2,87.5,52,103.8,52.1,103.8z"/>
		<path class="st0" d="M41.9,63c0,0,0.1,0.1,0.2,0.1c0,0,0-0.1,0-0.1C42.1,63,41.9,63,41.9,63z"/>
		<path class="st0" d="M90,0v8.4c-5.7,0-11.4,0-17.1,0.3c-3.8,0.2-7.5,0.5-11.3,1l0,0c-5.2,0.7-10.4,1.8-15.5,3.5
			c-0.4,0.1-0.8,0.2-1.1,0.2s-0.8-0.1-1.1-0.2c-0.1,0-0.1,0-0.2-0.1c-2.6-0.9-5.3-1.6-7.9-2.1c-4.5-1-9-1.6-13.5-2
			c-1.9-0.2-3.8-0.3-5.8-0.4c-1.7-0.1-3.4-0.1-5-0.2C7.6,8.4,3.8,8.4,0,8.4V0c7.4,0,14.9,0,22.2,0.7C26.5,1,30.8,1.6,35,2.5
			c3,0.6,5.9,1.4,8.9,2.3c0.2,0.1,0.3,0.1,0.5,0.1c0.2,0,0.4,0,0.6,0c0.4,0,0.8-0.1,1.1-0.2c7.1-2.3,14.3-3.5,21.7-4.2
			C75.1,0,82.6,0,90,0L90,0z"/>
	</g>
</g>
</svg>
