<?xml version="1.0" encoding="utf-8"?>
<!-- Generator: Adobe Illustrator 27.1.1, SVG Export Plug-In . SVG Version: 6.00 Build 0)  -->
<svg version="1.1" id="Layer_2_00000015339701539203618850000002836327797871330433_"
	 xmlns="http://www.w3.org/2000/svg" xmlns:xlink="http://www.w3.org/1999/xlink" x="0px" y="0px" viewBox="0 0 307.3 135.1"
	 style="enable-background:new 0 0 307.3 135.1;" xml:space="preserve">
<style type="text/css">
	.st0{fill:#FFFFFF;}
</style>
<g id="Layer_1-2">
	<g>
		<path class="st0" d="M110.9,94.6v-3.1c2.4-0.1,4-0.6,4.9-1.7c0.9-1,1.4-2.5,1.5-4.2s0.1-3.8,0.1-6.2V39.8c0-1.7,0-3.2,0.1-4.4
			c0.1-1.2,0.1-2.2,0.2-3.1c-1.1,0.1-2.3,0.1-3.4,0.2c-1.1,0.1-2.3,0.1-3.4,0.2v-4.1c3.5-0.1,6.9-0.1,10.4-0.1s7.1,0,10.9,0
			c7.3,0,13,1.3,17.1,3.9c4.1,2.6,6.1,6.7,6,12.3c0,2-0.6,4-1.8,6c-1.2,2-2.9,3.8-5.2,5.3s-5.2,2.6-8.6,3.3v0.2
			c6.9,0,12.1,1.6,15.7,4.8c3.5,3.2,5.3,7.2,5.3,12c0,3.8-1,7.1-2.9,9.9c-1.9,2.8-4.6,4.9-7.9,6.4s-7.1,2.2-11.4,2.2L110.9,94.6
			L110.9,94.6z M125.4,90.8c1,0.1,2.2,0.1,3.6,0.1c1.4,0,2.7,0.1,4,0.1h2.4c4.9,0,8.8-1.2,11.8-3.6s4.5-6,4.5-10.7
			c0-3.8-0.8-6.8-2.3-9c-1.5-2.1-3.5-3.7-5.9-4.5c-2.5-0.9-5.1-1.3-8-1.3c-1.9,0-3.6,0-5.1,0s-3.1,0.1-4.6,0.2v21.3
			c0,1.7,0,3.2-0.1,4.3C125.6,89,125.5,90,125.4,90.8L125.4,90.8z M125.7,58.5l6.9-0.2c3.6-0.1,6.4-0.8,8.5-2.2
			c2.1-1.4,3.6-3.2,4.5-5.3c0.9-2.1,1.3-4.4,1.3-6.7c-0.1-3.4-0.8-6-2.3-7.7s-3.3-3-5.4-3.6s-4.2-1-6.3-1s-3.6,0.3-4.6,0.8
			c-1,0.6-1.7,1.5-2,2.8c-0.3,1.3-0.5,3.2-0.5,5.5L125.7,58.5L125.7,58.5z"/>
		<path class="st0" d="M216.6,95c-2.8-6.3-5.6-12.6-8.4-18.8c-2.8-6.3-5.6-12.6-8.3-19c-0.9-2-1.8-4-2.6-6.1c-0.9-2-1.7-4.1-2.4-6.2
			c-0.8-2.1-1.6-4.2-2.4-6.2c0,0.7,0,1.4-0.1,2.1c0,0.7-0.1,1.4-0.1,2.1c-0.1,2.3-0.1,5-0.2,8.2c-0.1,3.2-0.2,6.6-0.3,10.2
			s-0.2,7.2-0.3,10.9s-0.1,7-0.2,10.2c-0.1,1.4-0.1,2.8-0.1,4.2c0,1.4-0.1,2.7-0.2,3.9c1.2-0.1,2.4-0.1,3.5-0.2
			c1.2-0.1,2.3-0.1,3.5-0.2V94h-18v-3.1c1.9-0.1,3.4-0.5,4.3-1.3c0.9-0.8,1.5-1.8,1.8-3.2c0.2-1.3,0.4-2.7,0.5-4.2l1.8-43
			c0.1-1.3,0.1-2.5,0.1-3.8c0-1.3,0.1-2.5,0.1-3.7c-1.1,0.1-2.3,0.1-3.4,0.1c-1.1,0-2.3,0.1-3.4,0.1V28h14.4l16.2,37.5
			c0.8,1.9,1.6,3.8,2.4,5.7c0.8,1.9,1.6,3.8,2.5,5.7c0.9,1.9,1.7,3.8,2.5,5.8h0.2c0.7-1.7,1.5-3.7,2.4-6.1c0.9-2.4,1.7-4.4,2.4-6.1
			c2.8-6.9,5.6-13.9,8.6-20.8s5.9-14.1,8.8-21.6h14v3.1c-1.6-0.1-2.9,0.2-3.9,0.9s-1.7,1.8-2.2,3.2c-0.4,1.5-0.6,3.6-0.5,6.1
			l2.5,42.9c0.1,1.1,0.2,2.1,0.2,3.1v2.7c1.1-0.1,2.3-0.1,3.4-0.1c1.2,0,2.3-0.1,3.4-0.1V94h-21.1v-3.1c1.9-0.1,3.4-0.5,4.3-1.4
			c0.9-0.9,1.5-2.1,1.8-3.8c0.2-1.6,0.3-3.7,0.1-6l-1.9-31.1c-0.1-1-0.1-2-0.2-3c-0.1-1-0.1-2-0.2-3c-0.1-1-0.1-2-0.2-3
			c-0.2,0.4-0.4,0.9-0.6,1.4c-0.2,0.5-0.4,1-0.6,1.6L219.4,95L216.6,95L216.6,95z"/>
		<path class="st0" d="M307.3,31.6c-2.3,0.1-4,0.6-4.9,1.6c-0.9,1-1.4,2.4-1.5,4.1s-0.1,3.7-0.1,5.9v40.1c0,1.7,0,3.2,0,4.4
			c0,1.2-0.1,2.2-0.2,3.1c1.1-0.1,2.3-0.1,3.4-0.2s2.3-0.1,3.4-0.2v4.2h-21.2v-3.1c2.4-0.1,4-0.7,4.9-1.7c0.9-1,1.4-2.3,1.5-4.1
			c0.1-1.7,0.1-3.7,0.1-5.9V39c0-1.3,0-2.5,0.1-3.6s0.1-2.2,0.2-3.2c-1.1,0.1-2.3,0.1-3.4,0.2c-1.1,0.1-2.3,0.1-3.4,0.2v-4.1h21.2
			L307.3,31.6L307.3,31.6z"/>
		<g>
			<path class="st0" d="M39.1,59.8L0,32.4V12.6c2.4,0,4.8,0,7.2,0l31.4,44.9l0,0C38.6,58.3,38.8,59,39.1,59.8
				C39.2,60.2,39.2,60.2,39.1,59.8L39.1,59.8z"/>
			<path class="st0" d="M39.5,54.2c-0.4,0.7-0.7,1.4-0.8,2.1L18.5,12.9c1.2,0.1,2.5,0.2,3.7,0.3c4.7,0.4,9.3,1,13.9,2L39.5,54.2
				L39.5,54.2z"/>
			<path class="st0" d="M41,62.4L0,58.9V42.3l39.5,18.5C39.9,61.4,40.4,62,41,62.4z"/>
			<path class="st0" d="M59.6,14.2L42,51.9l0,0c-0.7,0.4-1.3,0.8-1.8,1.4l3.2-36.1c0.2,0,0.3,0.1,0.5,0.2c0.4,0.1,0.7,0.2,1.1,0.2
				s0.8-0.1,1.1-0.2C50.6,15.9,55.1,14.9,59.6,14.2L59.6,14.2z"/>
			<path class="st0" d="M90,12.6v7.3L45.2,51.1l0,0c-0.1,0-0.2,0-0.2,0c-0.7,0-1.3,0.1-2,0.3l26.9-38.4C76.5,12.6,83.3,12.6,90,12.6
				L90,12.6z"/>
			<path class="st0" d="M90,30.9v17.6l-41.5,3.6l0,0c-0.6-0.4-1.3-0.7-2.1-0.9L90,30.9L90,30.9z"/>
			<path class="st0" d="M49.3,52.8c1.2,1.2,2,2.8,2,4.7c0,2.5-1.4,4.6-3.5,5.7c-0.5-1.3-0.8-2.6-1-3.8c0.5-0.5,0.8-1.1,0.8-1.9
				c0-1.5-1.2-2.7-2.7-2.7s-2.7,1.2-2.7,2.7c0,0.7,0.3,1.4,0.7,1.8c-0.2,1-0.4,2.1-0.8,3.2c0,0.2-0.1,0.3-0.2,0.5l-0.2,0L0,66.7
				v23.5c0,6.2,2.8,12.1,7,17.5c4.2,5.4,9.8,10.2,15.5,14.3c5.6,4.1,11.3,7.4,15.5,9.7c4.2,2.3,7,3.5,7,3.5s2.8-1.3,7-3.5
				c4.2-2.3,9.9-5.6,15.5-9.7c5.6-4.1,11.3-8.9,15.5-14.3c4.2-5.4,7-11.3,7-17.5V56.4L49.3,52.8L49.3,52.8z M45.2,117.3
				C45.2,117.3,45.2,117.3,45.2,117.3L45.2,117.3c-6.9-1.4-6.4-3.8-6.4-3.8h12.8C51.6,113.5,52.1,115.9,45.2,117.3L45.2,117.3z
				 M54.4,112.3H35.5v-7.6h18.9V112.3z M52.1,103.8H37.9c0,0,1.8-16.3-7.9-22.3c7.9-6.9,13.8-17,14-24v28.3
				c-0.8,0.4-1.4,1.2-1.4,2.2c0,1.3,1.1,2.5,2.4,2.5s2.4-1.1,2.4-2.5c0-1-0.6-1.8-1.5-2.2V57.5c0.2,7.1,6.1,17.1,14,24
				C50.2,87.5,52,103.8,52.1,103.8z"/>
			<path class="st0" d="M41.9,63c0,0,0.1,0.1,0.2,0.1c0,0,0-0.1,0-0.1C42.1,63,41.9,63,41.9,63z"/>
			<path class="st0" d="M90,0v8.4c-5.7,0-11.4,0-17.1,0.3c-3.8,0.2-7.5,0.5-11.3,1l0,0c-5.2,0.7-10.4,1.8-15.5,3.5
				c-0.4,0.1-0.8,0.2-1.1,0.2s-0.8-0.1-1.1-0.2c-0.1,0-0.1,0-0.2-0.1c-2.6-0.9-5.3-1.6-7.9-2.1c-4.5-1-9-1.6-13.5-2
				c-1.9-0.2-3.8-0.3-5.8-0.4c-1.7-0.1-3.4-0.1-5-0.2C7.6,8.4,3.8,8.4,0,8.4V0c7.4,0,14.9,0,22.2,0.7C26.5,1,30.8,1.6,35,2.5
				c3,0.6,5.9,1.4,8.9,2.3c0.2,0.1,0.3,0.1,0.5,0.1c0.2,0,0.4,0,0.6,0c0.4,0,0.8-0.1,1.1-0.2c7.1-2.3,14.3-3.5,21.7-4.2
				C75.1,0,82.6,0,90,0L90,0z"/>
		</g>
		<rect x="166.1" y="28.5" class="st0" width="5.5" height="66.5"/>
		<rect x="269.6" y="28.6" class="st0" width="5.5" height="66.5"/>
	</g>
</g>
</svg>
